%TF.GenerationSoftware,KiCad,Pcbnew,6.0.10-86aedd382b~118~ubuntu22.04.1*%
%TF.CreationDate,2023-02-04T11:12:36-05:00*%
%TF.ProjectId,HP Classic V3,48502043-6c61-4737-9369-632056332e6b,V3.1*%
%TF.SameCoordinates,Original*%
%TF.FileFunction,Legend,Top*%
%TF.FilePolarity,Positive*%
%FSLAX46Y46*%
G04 Gerber Fmt 4.6, Leading zero omitted, Abs format (unit mm)*
G04 Created by KiCad (PCBNEW 6.0.10-86aedd382b~118~ubuntu22.04.1) date 2023-02-04 11:12:36*
%MOMM*%
%LPD*%
G01*
G04 APERTURE LIST*
%ADD10C,0.100000*%
%ADD11C,0.000000*%
%ADD12C,0.300000*%
%ADD13C,0.200000*%
%ADD14C,0.150000*%
%ADD15C,0.120000*%
G04 APERTURE END LIST*
D10*
X14202380Y13071428D02*
X13202380Y13071428D01*
X13202380Y13642857D01*
X13250000Y13785714D01*
X13297619Y13857142D01*
X13392857Y13928571D01*
X13535714Y13928571D01*
X13630952Y13857142D01*
X13678571Y13785714D01*
X13726190Y13642857D01*
X13726190Y13071428D01*
X14202380Y14571428D02*
X13535714Y14571428D01*
X13726190Y14571428D02*
X13630952Y14642857D01*
X13583333Y14714285D01*
X13535714Y14857142D01*
X13535714Y15000000D01*
X14202380Y15714285D02*
X14154761Y15571428D01*
X14107142Y15500000D01*
X14011904Y15428571D01*
X13726190Y15428571D01*
X13630952Y15500000D01*
X13583333Y15571428D01*
X13535714Y15714285D01*
X13535714Y15928571D01*
X13583333Y16071428D01*
X13630952Y16142857D01*
X13726190Y16214285D01*
X14011904Y16214285D01*
X14107142Y16142857D01*
X14154761Y16071428D01*
X14202380Y15928571D01*
X14202380Y15714285D01*
X13535714Y16642857D02*
X13535714Y17214285D01*
X13202380Y16857142D02*
X14059523Y16857142D01*
X14154761Y16928571D01*
X14202380Y17071428D01*
X14202380Y17214285D01*
X14154761Y18285714D02*
X14202380Y18142857D01*
X14202380Y17857142D01*
X14154761Y17714285D01*
X14059523Y17642857D01*
X13678571Y17642857D01*
X13583333Y17714285D01*
X13535714Y17857142D01*
X13535714Y18142857D01*
X13583333Y18285714D01*
X13678571Y18357142D01*
X13773809Y18357142D01*
X13869047Y17642857D01*
X14154761Y19642857D02*
X14202380Y19500000D01*
X14202380Y19214285D01*
X14154761Y19071428D01*
X14107142Y19000000D01*
X14011904Y18928571D01*
X13726190Y18928571D01*
X13630952Y19000000D01*
X13583333Y19071428D01*
X13535714Y19214285D01*
X13535714Y19500000D01*
X13583333Y19642857D01*
X13535714Y20071428D02*
X13535714Y20642857D01*
X13202380Y20285714D02*
X14059523Y20285714D01*
X14154761Y20357142D01*
X14202380Y20500000D01*
X14202380Y20642857D01*
X14107142Y26071428D02*
X14154761Y26000000D01*
X14202380Y25785714D01*
X14202380Y25642857D01*
X14154761Y25428571D01*
X14059523Y25285714D01*
X13964285Y25214285D01*
X13773809Y25142857D01*
X13630952Y25142857D01*
X13440476Y25214285D01*
X13345238Y25285714D01*
X13250000Y25428571D01*
X13202380Y25642857D01*
X13202380Y25785714D01*
X13250000Y26000000D01*
X13297619Y26071428D01*
X14202380Y26714285D02*
X13202380Y26714285D01*
X14202380Y27357142D02*
X13678571Y27357142D01*
X13583333Y27285714D01*
X13535714Y27142857D01*
X13535714Y26928571D01*
X13583333Y26785714D01*
X13630952Y26714285D01*
X14202380Y28714285D02*
X13678571Y28714285D01*
X13583333Y28642857D01*
X13535714Y28500000D01*
X13535714Y28214285D01*
X13583333Y28071428D01*
X14154761Y28714285D02*
X14202380Y28571428D01*
X14202380Y28214285D01*
X14154761Y28071428D01*
X14059523Y28000000D01*
X13964285Y28000000D01*
X13869047Y28071428D01*
X13821428Y28214285D01*
X13821428Y28571428D01*
X13773809Y28714285D01*
X14202380Y29428571D02*
X13535714Y29428571D01*
X13726190Y29428571D02*
X13630952Y29500000D01*
X13583333Y29571428D01*
X13535714Y29714285D01*
X13535714Y29857142D01*
X13535714Y31000000D02*
X14345238Y31000000D01*
X14440476Y30928571D01*
X14488095Y30857142D01*
X14535714Y30714285D01*
X14535714Y30500000D01*
X14488095Y30357142D01*
X14154761Y31000000D02*
X14202380Y30857142D01*
X14202380Y30571428D01*
X14154761Y30428571D01*
X14107142Y30357142D01*
X14011904Y30285714D01*
X13726190Y30285714D01*
X13630952Y30357142D01*
X13583333Y30428571D01*
X13535714Y30571428D01*
X13535714Y30857142D01*
X13583333Y31000000D01*
X14154761Y32285714D02*
X14202380Y32142857D01*
X14202380Y31857142D01*
X14154761Y31714285D01*
X14059523Y31642857D01*
X13678571Y31642857D01*
X13583333Y31714285D01*
X13535714Y31857142D01*
X13535714Y32142857D01*
X13583333Y32285714D01*
X13678571Y32357142D01*
X13773809Y32357142D01*
X13869047Y31642857D01*
X1250000Y21750000D02*
X14750000Y21750000D01*
X14750000Y21750000D02*
X14750000Y11500000D01*
X14750000Y11500000D02*
X1250000Y11500000D01*
X1250000Y11500000D02*
X1250000Y21750000D01*
X1250000Y36000000D02*
X14750000Y36000000D01*
X14750000Y36000000D02*
X14750000Y21750000D01*
X14750000Y21750000D02*
X1250000Y21750000D01*
X1250000Y21750000D02*
X1250000Y36000000D01*
D11*
G36*
X2675518Y24869433D02*
G01*
X2678704Y24869284D01*
X2681864Y24869035D01*
X2684997Y24868685D01*
X2688103Y24868235D01*
X2691179Y24867683D01*
X2694226Y24867030D01*
X2697243Y24866275D01*
X2700228Y24865417D01*
X2703182Y24864457D01*
X2706104Y24863394D01*
X2708992Y24862228D01*
X2711846Y24860957D01*
X2714665Y24859582D01*
X2717448Y24858103D01*
X2720195Y24856518D01*
X2722936Y24854847D01*
X2725603Y24853108D01*
X2728196Y24851300D01*
X2730717Y24849424D01*
X2733164Y24847480D01*
X2735538Y24845468D01*
X2737841Y24843387D01*
X2740072Y24841239D01*
X2742232Y24839022D01*
X2744320Y24836737D01*
X2746339Y24834383D01*
X2748287Y24831962D01*
X2750165Y24829472D01*
X2751974Y24826914D01*
X2753714Y24824288D01*
X2755385Y24821593D01*
X2756969Y24818803D01*
X2758449Y24815987D01*
X2759824Y24813146D01*
X2761094Y24810278D01*
X2762261Y24807384D01*
X2763324Y24804464D01*
X2764284Y24801517D01*
X2765141Y24798541D01*
X2765897Y24795538D01*
X2766550Y24792507D01*
X2767101Y24789447D01*
X2767552Y24786358D01*
X2767901Y24783240D01*
X2768151Y24780091D01*
X2768300Y24776913D01*
X2768350Y24773704D01*
X2768350Y24677395D01*
X2192087Y24677395D01*
X2192087Y24773439D01*
X2192199Y24778310D01*
X2192533Y24783100D01*
X2193090Y24787807D01*
X2193869Y24792431D01*
X2194870Y24796972D01*
X2196092Y24801428D01*
X2197535Y24805799D01*
X2199198Y24810084D01*
X2201081Y24814282D01*
X2203185Y24818392D01*
X2205507Y24822415D01*
X2208049Y24826348D01*
X2210809Y24830191D01*
X2213788Y24833943D01*
X2216984Y24837604D01*
X2220398Y24841172D01*
X2223966Y24844586D01*
X2227627Y24847782D01*
X2231379Y24850761D01*
X2235222Y24853521D01*
X2239155Y24856063D01*
X2243178Y24858385D01*
X2247288Y24860489D01*
X2251486Y24862372D01*
X2255771Y24864036D01*
X2260142Y24865479D01*
X2264598Y24866701D01*
X2269139Y24867701D01*
X2273763Y24868480D01*
X2278470Y24869037D01*
X2283260Y24869371D01*
X2288131Y24869483D01*
X2672306Y24869483D01*
X2675518Y24869433D01*
G37*
G36*
X2034164Y23469506D02*
G01*
X2115358Y23397341D01*
X2507206Y23051531D01*
X2509255Y23049897D01*
X2511336Y23048368D01*
X2513447Y23046945D01*
X2515590Y23045627D01*
X2517763Y23044415D01*
X2519968Y23043308D01*
X2522203Y23042307D01*
X2524470Y23041411D01*
X2526767Y23040620D01*
X2529096Y23039935D01*
X2531456Y23039355D01*
X2533846Y23038881D01*
X2536268Y23038512D01*
X2538720Y23038248D01*
X2541204Y23038090D01*
X2543719Y23038037D01*
X2545154Y23038056D01*
X2546583Y23038112D01*
X2548005Y23038205D01*
X2549420Y23038335D01*
X2550826Y23038502D01*
X2552225Y23038707D01*
X2553615Y23038949D01*
X2554996Y23039228D01*
X2556368Y23039544D01*
X2557731Y23039898D01*
X2559083Y23040288D01*
X2560424Y23040716D01*
X2561755Y23041181D01*
X2563075Y23041683D01*
X2564383Y23042223D01*
X2565679Y23042800D01*
X2567511Y23043712D01*
X2569285Y23044663D01*
X2571002Y23045653D01*
X2572661Y23046681D01*
X2574263Y23047747D01*
X2575807Y23048852D01*
X2577293Y23049994D01*
X2578722Y23051175D01*
X2580093Y23052394D01*
X2581407Y23053651D01*
X2582662Y23054946D01*
X2583859Y23056278D01*
X2584999Y23057648D01*
X2586081Y23059055D01*
X2587104Y23060500D01*
X2588070Y23061982D01*
X2588977Y23063501D01*
X2589826Y23065058D01*
X2590617Y23066651D01*
X2591349Y23068281D01*
X2592024Y23069948D01*
X2592640Y23071652D01*
X2593197Y23073393D01*
X2593696Y23075170D01*
X2594137Y23076983D01*
X2594518Y23078833D01*
X2594842Y23080719D01*
X2595106Y23082641D01*
X2595312Y23084599D01*
X2595459Y23086593D01*
X2595548Y23088623D01*
X2595577Y23090689D01*
X2595577Y23353950D01*
X2813032Y23277353D01*
X2960438Y23226156D01*
X2960438Y22564698D01*
X2000000Y22564698D01*
X2000000Y23500000D01*
X2034164Y23469506D01*
G37*
G36*
X2960702Y23366650D02*
G01*
X2960437Y23366650D01*
X2758825Y23539422D01*
X2539750Y23726747D01*
X2406962Y23840088D01*
X2400717Y23845316D01*
X2405246Y23841308D01*
X2446617Y23805593D01*
X2444672Y23807085D01*
X2442709Y23808482D01*
X2440727Y23809787D01*
X2438725Y23810997D01*
X2436702Y23812112D01*
X2434659Y23813132D01*
X2432595Y23814057D01*
X2430510Y23814887D01*
X2428403Y23815620D01*
X2426274Y23816257D01*
X2424123Y23816797D01*
X2421948Y23817239D01*
X2419751Y23817584D01*
X2417530Y23817831D01*
X2415284Y23817979D01*
X2413015Y23818029D01*
X2411678Y23818010D01*
X2410347Y23817954D01*
X2409021Y23817861D01*
X2407698Y23817731D01*
X2406379Y23817564D01*
X2405062Y23817359D01*
X2403746Y23817117D01*
X2402431Y23816838D01*
X2401117Y23816522D01*
X2399801Y23816168D01*
X2398484Y23815778D01*
X2397164Y23815350D01*
X2395842Y23814885D01*
X2394516Y23814382D01*
X2393185Y23813843D01*
X2391848Y23813266D01*
X2390188Y23812403D01*
X2388580Y23811499D01*
X2387025Y23810555D01*
X2385523Y23809570D01*
X2384073Y23808545D01*
X2382676Y23807479D01*
X2381332Y23806372D01*
X2380041Y23805225D01*
X2378802Y23804038D01*
X2377616Y23802809D01*
X2376483Y23801540D01*
X2375403Y23800230D01*
X2374375Y23798879D01*
X2373400Y23797487D01*
X2372477Y23796054D01*
X2371607Y23794580D01*
X2370790Y23793065D01*
X2370026Y23791509D01*
X2369315Y23789911D01*
X2368656Y23788273D01*
X2368050Y23786593D01*
X2367496Y23784872D01*
X2366995Y23783109D01*
X2366547Y23781305D01*
X2366152Y23779460D01*
X2365809Y23777573D01*
X2365520Y23775644D01*
X2365282Y23773674D01*
X2365098Y23771663D01*
X2364966Y23769609D01*
X2364861Y23765377D01*
X2365919Y23504233D01*
X2318327Y23521034D01*
X2229659Y23552122D01*
X2000265Y23633879D01*
X2000265Y24293750D01*
X2960702Y24293750D01*
X2960702Y23366650D01*
G37*
G36*
X1894078Y22276786D02*
G01*
X1884385Y22277446D01*
X1874877Y22278546D01*
X1865555Y22280084D01*
X1856416Y22282062D01*
X1847462Y22284477D01*
X1838692Y22287331D01*
X1830105Y22290622D01*
X1821700Y22294351D01*
X1813479Y22298516D01*
X1805439Y22303117D01*
X1797581Y22308155D01*
X1789905Y22313628D01*
X1782410Y22319537D01*
X1775095Y22325880D01*
X1767960Y22332658D01*
X1761139Y22339793D01*
X1754763Y22347107D01*
X1748833Y22354603D01*
X1743346Y22362279D01*
X1738303Y22370137D01*
X1733702Y22378176D01*
X1729543Y22386398D01*
X1725826Y22394802D01*
X1722548Y22403389D01*
X1719710Y22412160D01*
X1717311Y22421114D01*
X1715350Y22430252D01*
X1713826Y22439575D01*
X1712738Y22449082D01*
X1712086Y22458775D01*
X1711869Y22468654D01*
X1903956Y22468654D01*
X3056481Y22468654D01*
X3056481Y24389264D01*
X1903956Y24389264D01*
X1903956Y22468654D01*
X1711869Y22468654D01*
X1711869Y24389264D01*
X1712089Y24399143D01*
X1712749Y24408836D01*
X1713848Y24418343D01*
X1715387Y24427666D01*
X1717364Y24436804D01*
X1719780Y24445758D01*
X1722634Y24454529D01*
X1725925Y24463116D01*
X1729653Y24471520D01*
X1733818Y24479742D01*
X1738420Y24487781D01*
X1743458Y24495639D01*
X1748931Y24503315D01*
X1754839Y24510811D01*
X1761183Y24518125D01*
X1767960Y24525260D01*
X1775095Y24532081D01*
X1782410Y24538457D01*
X1789905Y24544388D01*
X1797581Y24549875D01*
X1805439Y24554918D01*
X1813479Y24559518D01*
X1821700Y24563677D01*
X1830104Y24567395D01*
X1838692Y24570672D01*
X1847462Y24573510D01*
X1856416Y24575910D01*
X1865555Y24577871D01*
X1874877Y24579395D01*
X1884385Y24580483D01*
X1894078Y24581135D01*
X1903956Y24581352D01*
X3056481Y24581352D01*
X3066360Y24581132D01*
X3076053Y24580472D01*
X3085560Y24579372D01*
X3094883Y24577834D01*
X3104021Y24575856D01*
X3112975Y24573441D01*
X3121746Y24570587D01*
X3130333Y24567296D01*
X3138737Y24563567D01*
X3146959Y24559402D01*
X3154998Y24554801D01*
X3162856Y24549763D01*
X3170532Y24544290D01*
X3178028Y24538381D01*
X3185342Y24532038D01*
X3192477Y24525260D01*
X3199298Y24518125D01*
X3205674Y24510811D01*
X3211605Y24503315D01*
X3217092Y24495639D01*
X3222135Y24487781D01*
X3226735Y24479742D01*
X3230894Y24471520D01*
X3234612Y24463116D01*
X3237889Y24454529D01*
X3240727Y24445758D01*
X3243126Y24436804D01*
X3245088Y24427666D01*
X3246612Y24418343D01*
X3247699Y24408836D01*
X3248351Y24399143D01*
X3248569Y24389264D01*
X3248569Y22468654D01*
X3248349Y22458775D01*
X3247689Y22449082D01*
X3246589Y22439575D01*
X3245051Y22430252D01*
X3243073Y22421114D01*
X3240657Y22412160D01*
X3237804Y22403389D01*
X3234513Y22394802D01*
X3230784Y22386398D01*
X3226619Y22378176D01*
X3222018Y22370137D01*
X3216980Y22362279D01*
X3211507Y22354603D01*
X3205598Y22347107D01*
X3199255Y22339793D01*
X3192477Y22332658D01*
X3185386Y22325837D01*
X3178104Y22319461D01*
X3170631Y22313530D01*
X3162968Y22308043D01*
X3155116Y22303000D01*
X3147075Y22298400D01*
X3138847Y22294241D01*
X3130432Y22290523D01*
X3121831Y22287246D01*
X3113045Y22284408D01*
X3104075Y22282009D01*
X3094920Y22280047D01*
X3085583Y22278523D01*
X3076063Y22277436D01*
X3066363Y22276784D01*
X3056481Y22276566D01*
X1903956Y22276566D01*
X1894078Y22276786D01*
G37*
D12*
X47928571Y30642857D02*
X49071428Y30642857D01*
X47728571Y16092857D02*
X48871428Y16092857D01*
X48300000Y15521428D02*
X48300000Y16664285D01*
X11478571Y5792857D02*
X12621428Y5792857D01*
X12050000Y5221428D02*
X12050000Y6364285D01*
D10*
X15250000Y38250000D02*
X55250000Y38250000D01*
X55250000Y38250000D02*
X55250000Y8250000D01*
X55250000Y8250000D02*
X15250000Y8250000D01*
X15250000Y8250000D02*
X15250000Y38250000D01*
D13*
X27761904Y22345238D02*
X26809523Y22345238D01*
X26809523Y24345238D01*
X28428571Y22345238D02*
X28428571Y23678571D01*
X28428571Y24345238D02*
X28333333Y24250000D01*
X28428571Y24154761D01*
X28523809Y24250000D01*
X28428571Y24345238D01*
X28428571Y24154761D01*
X29380952Y22345238D02*
X29380952Y24345238D01*
X30142857Y24345238D01*
X30333333Y24250000D01*
X30428571Y24154761D01*
X30523809Y23964285D01*
X30523809Y23678571D01*
X30428571Y23488095D01*
X30333333Y23392857D01*
X30142857Y23297619D01*
X29380952Y23297619D01*
X31666666Y22345238D02*
X31476190Y22440476D01*
X31380952Y22535714D01*
X31285714Y22726190D01*
X31285714Y23297619D01*
X31380952Y23488095D01*
X31476190Y23583333D01*
X31666666Y23678571D01*
X31952380Y23678571D01*
X32142857Y23583333D01*
X32238095Y23488095D01*
X32333333Y23297619D01*
X32333333Y22726190D01*
X32238095Y22535714D01*
X32142857Y22440476D01*
X31952380Y22345238D01*
X31666666Y22345238D01*
X35761904Y22345238D02*
X34619047Y22345238D01*
X35190476Y22345238D02*
X35190476Y24345238D01*
X35000000Y24059523D01*
X34809523Y23869047D01*
X34619047Y23773809D01*
X37000000Y24345238D02*
X37190476Y24345238D01*
X37380952Y24250000D01*
X37476190Y24154761D01*
X37571428Y23964285D01*
X37666666Y23583333D01*
X37666666Y23107142D01*
X37571428Y22726190D01*
X37476190Y22535714D01*
X37380952Y22440476D01*
X37190476Y22345238D01*
X37000000Y22345238D01*
X36809523Y22440476D01*
X36714285Y22535714D01*
X36619047Y22726190D01*
X36523809Y23107142D01*
X36523809Y23583333D01*
X36619047Y23964285D01*
X36714285Y24154761D01*
X36809523Y24250000D01*
X37000000Y24345238D01*
X38333333Y24345238D02*
X39571428Y24345238D01*
X38904761Y23583333D01*
X39190476Y23583333D01*
X39380952Y23488095D01*
X39476190Y23392857D01*
X39571428Y23202380D01*
X39571428Y22726190D01*
X39476190Y22535714D01*
X39380952Y22440476D01*
X39190476Y22345238D01*
X38619047Y22345238D01*
X38428571Y22440476D01*
X38333333Y22535714D01*
X40809523Y24345238D02*
X41000000Y24345238D01*
X41190476Y24250000D01*
X41285714Y24154761D01*
X41380952Y23964285D01*
X41476190Y23583333D01*
X41476190Y23107142D01*
X41380952Y22726190D01*
X41285714Y22535714D01*
X41190476Y22440476D01*
X41000000Y22345238D01*
X40809523Y22345238D01*
X40619047Y22440476D01*
X40523809Y22535714D01*
X40428571Y22726190D01*
X40333333Y23107142D01*
X40333333Y23583333D01*
X40428571Y23964285D01*
X40523809Y24154761D01*
X40619047Y24250000D01*
X40809523Y24345238D01*
X43190476Y23678571D02*
X43190476Y22345238D01*
X42714285Y24440476D02*
X42238095Y23011904D01*
X43476190Y23011904D01*
X44619047Y24345238D02*
X44809523Y24345238D01*
X45000000Y24250000D01*
X45095238Y24154761D01*
X45190476Y23964285D01*
X45285714Y23583333D01*
X45285714Y23107142D01*
X45190476Y22726190D01*
X45095238Y22535714D01*
X45000000Y22440476D01*
X44809523Y22345238D01*
X44619047Y22345238D01*
X44428571Y22440476D01*
X44333333Y22535714D01*
X44238095Y22726190D01*
X44142857Y23107142D01*
X44142857Y23583333D01*
X44238095Y23964285D01*
X44333333Y24154761D01*
X44428571Y24250000D01*
X44619047Y24345238D01*
D14*
%TO.C,J1*%
X7091666Y41882619D02*
X7091666Y41168333D01*
X7044047Y41025476D01*
X6948809Y40930238D01*
X6805952Y40882619D01*
X6710714Y40882619D01*
X8091666Y40882619D02*
X7520238Y40882619D01*
X7805952Y40882619D02*
X7805952Y41882619D01*
X7710714Y41739761D01*
X7615476Y41644523D01*
X7520238Y41596904D01*
D10*
%TO.C,C1*%
X11875000Y34732142D02*
X11839285Y34696428D01*
X11732142Y34660714D01*
X11660714Y34660714D01*
X11553571Y34696428D01*
X11482142Y34767857D01*
X11446428Y34839285D01*
X11410714Y34982142D01*
X11410714Y35089285D01*
X11446428Y35232142D01*
X11482142Y35303571D01*
X11553571Y35375000D01*
X11660714Y35410714D01*
X11732142Y35410714D01*
X11839285Y35375000D01*
X11875000Y35339285D01*
X12589285Y34660714D02*
X12160714Y34660714D01*
X12375000Y34660714D02*
X12375000Y35410714D01*
X12303571Y35303571D01*
X12232142Y35232142D01*
X12160714Y35196428D01*
%TO.C,U2*%
X7428571Y21284242D02*
X7428571Y20677099D01*
X7464285Y20605670D01*
X7500000Y20569956D01*
X7571428Y20534242D01*
X7714285Y20534242D01*
X7785714Y20569956D01*
X7821428Y20605670D01*
X7857142Y20677099D01*
X7857142Y21284242D01*
X8178571Y21212813D02*
X8214285Y21248528D01*
X8285714Y21284242D01*
X8464285Y21284242D01*
X8535714Y21248528D01*
X8571428Y21212813D01*
X8607142Y21141385D01*
X8607142Y21069956D01*
X8571428Y20962813D01*
X8142857Y20534242D01*
X8607142Y20534242D01*
%TO.C,Z1*%
X3892857Y14410714D02*
X4392857Y14410714D01*
X3892857Y13660714D01*
X4392857Y13660714D01*
X5071428Y13660714D02*
X4642857Y13660714D01*
X4857142Y13660714D02*
X4857142Y14410714D01*
X4785714Y14303571D01*
X4714285Y14232142D01*
X4642857Y14196428D01*
%TO.C,R1*%
X3725000Y41680714D02*
X3475000Y42037857D01*
X3296428Y41680714D02*
X3296428Y42430714D01*
X3582142Y42430714D01*
X3653571Y42395000D01*
X3689285Y42359285D01*
X3725000Y42287857D01*
X3725000Y42180714D01*
X3689285Y42109285D01*
X3653571Y42073571D01*
X3582142Y42037857D01*
X3296428Y42037857D01*
X4439285Y41680714D02*
X4010714Y41680714D01*
X4225000Y41680714D02*
X4225000Y42430714D01*
X4153571Y42323571D01*
X4082142Y42252142D01*
X4010714Y42216428D01*
%TO.C,LED1*%
X4660714Y24910714D02*
X4303571Y24910714D01*
X4303571Y25660714D01*
X4910714Y25303571D02*
X5160714Y25303571D01*
X5267857Y24910714D02*
X4910714Y24910714D01*
X4910714Y25660714D01*
X5267857Y25660714D01*
X5589285Y24910714D02*
X5589285Y25660714D01*
X5767857Y25660714D01*
X5875000Y25625000D01*
X5946428Y25553571D01*
X5982142Y25482142D01*
X6017857Y25339285D01*
X6017857Y25232142D01*
X5982142Y25089285D01*
X5946428Y25017857D01*
X5875000Y24946428D01*
X5767857Y24910714D01*
X5589285Y24910714D01*
X6732142Y24910714D02*
X6303571Y24910714D01*
X6517857Y24910714D02*
X6517857Y25660714D01*
X6446428Y25553571D01*
X6375000Y25482142D01*
X6303571Y25446428D01*
%TO.C,C2*%
X3625000Y28732142D02*
X3589285Y28696428D01*
X3482142Y28660714D01*
X3410714Y28660714D01*
X3303571Y28696428D01*
X3232142Y28767857D01*
X3196428Y28839285D01*
X3160714Y28982142D01*
X3160714Y29089285D01*
X3196428Y29232142D01*
X3232142Y29303571D01*
X3303571Y29375000D01*
X3410714Y29410714D01*
X3482142Y29410714D01*
X3589285Y29375000D01*
X3625000Y29339285D01*
X3910714Y29339285D02*
X3946428Y29375000D01*
X4017857Y29410714D01*
X4196428Y29410714D01*
X4267857Y29375000D01*
X4303571Y29339285D01*
X4339285Y29267857D01*
X4339285Y29196428D01*
X4303571Y29089285D01*
X3875000Y28660714D01*
X4339285Y28660714D01*
%TO.C,U1*%
X8428571Y32160714D02*
X8428571Y31553571D01*
X8464285Y31482142D01*
X8500000Y31446428D01*
X8571428Y31410714D01*
X8714285Y31410714D01*
X8785714Y31446428D01*
X8821428Y31482142D01*
X8857142Y31553571D01*
X8857142Y32160714D01*
X9607142Y31410714D02*
X9178571Y31410714D01*
X9392857Y31410714D02*
X9392857Y32160714D01*
X9321428Y32053571D01*
X9250000Y31982142D01*
X9178571Y31946428D01*
%TO.C,J2*%
X7200000Y3780714D02*
X7200000Y3245000D01*
X7164285Y3137857D01*
X7092857Y3066428D01*
X6985714Y3030714D01*
X6914285Y3030714D01*
X7521428Y3709285D02*
X7557142Y3745000D01*
X7628571Y3780714D01*
X7807142Y3780714D01*
X7878571Y3745000D01*
X7914285Y3709285D01*
X7950000Y3637857D01*
X7950000Y3566428D01*
X7914285Y3459285D01*
X7485714Y3030714D01*
X7950000Y3030714D01*
%TO.C,R4*%
X5375000Y34660714D02*
X5125000Y35017857D01*
X4946428Y34660714D02*
X4946428Y35410714D01*
X5232142Y35410714D01*
X5303571Y35375000D01*
X5339285Y35339285D01*
X5375000Y35267857D01*
X5375000Y35160714D01*
X5339285Y35089285D01*
X5303571Y35053571D01*
X5232142Y35017857D01*
X4946428Y35017857D01*
X6017857Y35160714D02*
X6017857Y34660714D01*
X5839285Y35446428D02*
X5660714Y34910714D01*
X6125000Y34910714D01*
%TO.C,R3*%
X10375000Y24660714D02*
X10125000Y25017857D01*
X9946428Y24660714D02*
X9946428Y25410714D01*
X10232142Y25410714D01*
X10303571Y25375000D01*
X10339285Y25339285D01*
X10375000Y25267857D01*
X10375000Y25160714D01*
X10339285Y25089285D01*
X10303571Y25053571D01*
X10232142Y25017857D01*
X9946428Y25017857D01*
X10625000Y25410714D02*
X11089285Y25410714D01*
X10839285Y25125000D01*
X10946428Y25125000D01*
X11017857Y25089285D01*
X11053571Y25053571D01*
X11089285Y24982142D01*
X11089285Y24803571D01*
X11053571Y24732142D01*
X11017857Y24696428D01*
X10946428Y24660714D01*
X10732142Y24660714D01*
X10660714Y24696428D01*
X10625000Y24732142D01*
%TO.C,R2*%
X13725000Y41680714D02*
X13475000Y42037857D01*
X13296428Y41680714D02*
X13296428Y42430714D01*
X13582142Y42430714D01*
X13653571Y42395000D01*
X13689285Y42359285D01*
X13725000Y42287857D01*
X13725000Y42180714D01*
X13689285Y42109285D01*
X13653571Y42073571D01*
X13582142Y42037857D01*
X13296428Y42037857D01*
X14010714Y42359285D02*
X14046428Y42395000D01*
X14117857Y42430714D01*
X14296428Y42430714D01*
X14367857Y42395000D01*
X14403571Y42359285D01*
X14439285Y42287857D01*
X14439285Y42216428D01*
X14403571Y42109285D01*
X13975000Y41680714D01*
X14439285Y41680714D01*
D13*
%TO.C,J1*%
X4380000Y37010000D02*
X5230000Y37010000D01*
X4380000Y39850000D02*
X4380000Y40150000D01*
X13120000Y40150000D02*
X13120000Y39850000D01*
X12270000Y37010000D02*
X13120000Y37010000D01*
X4380000Y37150000D02*
X4380000Y37010000D01*
X4380000Y40150000D02*
X13120000Y40150000D01*
X13120000Y37010000D02*
X13120000Y37150000D01*
D15*
%TO.C,C1*%
X11738748Y32765000D02*
X12261252Y32765000D01*
X11738748Y34235000D02*
X12261252Y34235000D01*
%TO.C,U2*%
X8000000Y17063528D02*
X8800000Y17063528D01*
X8000000Y17063528D02*
X7200000Y17063528D01*
X8000000Y20183528D02*
X8800000Y20183528D01*
X8000000Y20183528D02*
X6200000Y20183528D01*
%TO.C,Z1*%
X10550000Y13000000D02*
X10550000Y15000000D01*
X10550000Y15000000D02*
X6250000Y15000000D01*
X6250000Y13000000D02*
X10550000Y13000000D01*
%TO.C,R1*%
X6727064Y42635000D02*
X6272936Y42635000D01*
X6727064Y41165000D02*
X6272936Y41165000D01*
%TO.C,LED1*%
X6500000Y24460000D02*
X3640000Y24460000D01*
X3640000Y22540000D02*
X6500000Y22540000D01*
X3640000Y24460000D02*
X3640000Y22540000D01*
%TO.C,C2*%
X4765000Y28738748D02*
X4765000Y29261252D01*
X6235000Y28738748D02*
X6235000Y29261252D01*
%TO.C,U1*%
X7440000Y29000000D02*
X7440000Y29800000D01*
X7440000Y29000000D02*
X7440000Y27200000D01*
X10560000Y29000000D02*
X10560000Y29800000D01*
X10560000Y29000000D02*
X10560000Y28200000D01*
%TO.C,J2*%
X6300000Y8120000D02*
X10660000Y8120000D01*
X8400000Y5320000D02*
X8400000Y6320000D01*
X4440000Y9760000D02*
X4440000Y9480000D01*
X4440000Y5760000D02*
X3225000Y5760000D01*
X8400000Y5820000D02*
X10660000Y5820000D01*
X6800000Y5320000D02*
X8400000Y5320000D01*
X8400000Y9920000D02*
X8400000Y8920000D01*
X8400000Y8920000D02*
X6800000Y8920000D01*
X2840000Y4560000D02*
X10660000Y4560000D01*
X4440000Y5760000D02*
X4440000Y5480000D01*
X6800000Y8920000D02*
X6800000Y9920000D01*
X4440000Y10680000D02*
X4440000Y9760000D01*
X2840000Y10680000D02*
X2840000Y9760000D01*
X4440000Y5480000D02*
X2840000Y5480000D01*
X10660000Y10680000D02*
X2840000Y10680000D01*
X8400000Y6320000D02*
X10660000Y6320000D01*
X10660000Y7120000D02*
X6300000Y7120000D01*
X6300000Y7120000D02*
X6300000Y8120000D01*
X2840000Y9760000D02*
X4440000Y9760000D01*
X8400000Y6320000D02*
X6800000Y6320000D01*
X10660000Y4560000D02*
X10660000Y10680000D01*
X6800000Y9920000D02*
X8400000Y9920000D01*
X6800000Y6320000D02*
X6800000Y5320000D01*
X4440000Y4560000D02*
X4440000Y5480000D01*
X2840000Y5480000D02*
X2840000Y4560000D01*
%TO.C,R4*%
X5727064Y34235000D02*
X5272936Y34235000D01*
X5727064Y32765000D02*
X5272936Y32765000D01*
%TO.C,R3*%
X10727064Y22765000D02*
X10272936Y22765000D01*
X10727064Y24235000D02*
X10272936Y24235000D01*
%TO.C,R2*%
X10772936Y41165000D02*
X11227064Y41165000D01*
X10772936Y42635000D02*
X11227064Y42635000D01*
%TD*%
M02*
