%TF.GenerationSoftware,KiCad,Pcbnew,6.0.10-86aedd382b~118~ubuntu22.04.1*%
%TF.CreationDate,2023-02-04T11:12:36-05:00*%
%TF.ProjectId,HP Classic V3,48502043-6c61-4737-9369-632056332e6b,V3.1*%
%TF.SameCoordinates,Original*%
%TF.FileFunction,Copper,L1,Top*%
%TF.FilePolarity,Positive*%
%FSLAX46Y46*%
G04 Gerber Fmt 4.6, Leading zero omitted, Abs format (unit mm)*
G04 Created by KiCad (PCBNEW 6.0.10-86aedd382b~118~ubuntu22.04.1) date 2023-02-04 11:12:36*
%MOMM*%
%LPD*%
G01*
G04 APERTURE LIST*
G04 Aperture macros list*
%AMRoundRect*
0 Rectangle with rounded corners*
0 $1 Rounding radius*
0 $2 $3 $4 $5 $6 $7 $8 $9 X,Y pos of 4 corners*
0 Add a 4 corners polygon primitive as box body*
4,1,4,$2,$3,$4,$5,$6,$7,$8,$9,$2,$3,0*
0 Add four circle primitives for the rounded corners*
1,1,$1+$1,$2,$3*
1,1,$1+$1,$4,$5*
1,1,$1+$1,$6,$7*
1,1,$1+$1,$8,$9*
0 Add four rect primitives between the rounded corners*
20,1,$1+$1,$2,$3,$4,$5,0*
20,1,$1+$1,$4,$5,$6,$7,0*
20,1,$1+$1,$6,$7,$8,$9,0*
20,1,$1+$1,$8,$9,$2,$3,0*%
G04 Aperture macros list end*
%TA.AperFunction,ComponentPad*%
%ADD10O,1.000000X2.000000*%
%TD*%
%TA.AperFunction,SMDPad,CuDef*%
%ADD11R,0.900000X2.000000*%
%TD*%
%TA.AperFunction,SMDPad,CuDef*%
%ADD12R,0.800000X2.000000*%
%TD*%
%TA.AperFunction,SMDPad,CuDef*%
%ADD13R,0.700000X2.000000*%
%TD*%
%TA.AperFunction,SMDPad,CuDef*%
%ADD14RoundRect,0.250000X-0.337500X-0.475000X0.337500X-0.475000X0.337500X0.475000X-0.337500X0.475000X0*%
%TD*%
%TA.AperFunction,SMDPad,CuDef*%
%ADD15RoundRect,0.150000X-0.512500X-0.150000X0.512500X-0.150000X0.512500X0.150000X-0.512500X0.150000X0*%
%TD*%
%TA.AperFunction,SMDPad,CuDef*%
%ADD16R,1.300000X1.700000*%
%TD*%
%TA.AperFunction,SMDPad,CuDef*%
%ADD17RoundRect,0.250000X0.350000X0.450000X-0.350000X0.450000X-0.350000X-0.450000X0.350000X-0.450000X0*%
%TD*%
%TA.AperFunction,SMDPad,CuDef*%
%ADD18RoundRect,0.250000X-0.325000X-0.450000X0.325000X-0.450000X0.325000X0.450000X-0.325000X0.450000X0*%
%TD*%
%TA.AperFunction,SMDPad,CuDef*%
%ADD19RoundRect,0.250000X0.475000X-0.337500X0.475000X0.337500X-0.475000X0.337500X-0.475000X-0.337500X0*%
%TD*%
%TA.AperFunction,SMDPad,CuDef*%
%ADD20RoundRect,0.150000X0.150000X-0.512500X0.150000X0.512500X-0.150000X0.512500X-0.150000X-0.512500X0*%
%TD*%
%TA.AperFunction,ComponentPad*%
%ADD21O,1.750000X1.200000*%
%TD*%
%TA.AperFunction,ComponentPad*%
%ADD22RoundRect,0.250000X0.625000X-0.350000X0.625000X0.350000X-0.625000X0.350000X-0.625000X-0.350000X0*%
%TD*%
%TA.AperFunction,SMDPad,CuDef*%
%ADD23RoundRect,0.250000X-0.350000X-0.450000X0.350000X-0.450000X0.350000X0.450000X-0.350000X0.450000X0*%
%TD*%
%TA.AperFunction,ComponentPad*%
%ADD24O,20.500000X2.000000*%
%TD*%
%TA.AperFunction,ViaPad*%
%ADD25C,0.800000*%
%TD*%
%TA.AperFunction,Conductor*%
%ADD26C,0.500000*%
%TD*%
%TA.AperFunction,Conductor*%
%ADD27C,0.250000*%
%TD*%
G04 APERTURE END LIST*
D10*
%TO.P,J1,S2,SHIELD*%
%TO.N,GND*%
X4480000Y38500000D03*
%TO.P,J1,S1,SHIELD*%
X13020000Y38500000D03*
D11*
%TO.P,J1,B12,GND_B*%
X6000000Y37700000D03*
D12*
%TO.P,J1,B9,VBUS_B*%
%TO.N,VBUS*%
X7230000Y37700000D03*
D13*
%TO.P,J1,B5,CC2*%
%TO.N,Net-(J1-PadB5)*%
X9250000Y37700000D03*
D11*
%TO.P,J1,A12,GND_A*%
%TO.N,GND*%
X11500000Y37700000D03*
D12*
%TO.P,J1,A9,VBUS_A*%
%TO.N,VBUS*%
X10270000Y37700000D03*
D13*
%TO.P,J1,A5,CC1*%
%TO.N,Net-(J1-PadA5)*%
X8250000Y37700000D03*
%TD*%
D14*
%TO.P,C1,2*%
%TO.N,GND*%
X13037500Y33500000D03*
%TO.P,C1,1*%
%TO.N,VBUS*%
X10962500Y33500000D03*
%TD*%
D15*
%TO.P,U2,5,OUT*%
%TO.N,Net-(POS1-Pad1)*%
X9137500Y19573528D03*
%TO.P,U2,4,NC*%
%TO.N,unconnected-(U2-Pad4)*%
X9137500Y17673528D03*
%TO.P,U2,3,EN*%
%TO.N,+VDC*%
X6862500Y17673528D03*
%TO.P,U2,2,GND*%
%TO.N,GND*%
X6862500Y18623528D03*
%TO.P,U2,1,VDD*%
%TO.N,+VDC*%
X6862500Y19573528D03*
%TD*%
D16*
%TO.P,Z1,2,A*%
%TO.N,GND*%
X6250000Y14000000D03*
%TO.P,Z1,1,K*%
%TO.N,Net-(POS1-Pad1)*%
X9750000Y14000000D03*
%TD*%
D17*
%TO.P,R1,2*%
%TO.N,GND*%
X5500000Y41900000D03*
%TO.P,R1,1*%
%TO.N,Net-(J1-PadA5)*%
X7500000Y41900000D03*
%TD*%
D18*
%TO.P,LED1,2,A*%
%TO.N,Net-(LED1-Pad2)*%
X6525000Y23500000D03*
%TO.P,LED1,1,K*%
%TO.N,Net-(LED1-Pad1)*%
X4475000Y23500000D03*
%TD*%
D19*
%TO.P,C2,2*%
%TO.N,GND*%
X5500000Y30037500D03*
%TO.P,C2,1*%
%TO.N,+VDC*%
X5500000Y27962500D03*
%TD*%
D20*
%TO.P,U1,5,PROG*%
%TO.N,Net-(R4-Pad1)*%
X8050000Y30137500D03*
%TO.P,U1,4,VDD*%
%TO.N,VBUS*%
X9950000Y30137500D03*
%TO.P,U1,3,VBAT*%
%TO.N,+VDC*%
X9950000Y27862500D03*
%TO.P,U1,2,VSS*%
%TO.N,GND*%
X9000000Y27862500D03*
%TO.P,U1,1,STAT*%
%TO.N,Net-(LED1-Pad1)*%
X8050000Y27862500D03*
%TD*%
D21*
%TO.P,J2,2,Pin_2*%
%TO.N,GND*%
X4300000Y8620000D03*
D22*
%TO.P,J2,1,Pin_1*%
%TO.N,+VDC*%
X4300000Y6620000D03*
%TD*%
D17*
%TO.P,R4,2*%
%TO.N,GND*%
X4500000Y33500000D03*
%TO.P,R4,1*%
%TO.N,Net-(R4-Pad1)*%
X6500000Y33500000D03*
%TD*%
%TO.P,R3,2*%
%TO.N,Net-(LED1-Pad2)*%
X9500000Y23500000D03*
%TO.P,R3,1*%
%TO.N,VBUS*%
X11500000Y23500000D03*
%TD*%
D23*
%TO.P,R2,1*%
%TO.N,Net-(J1-PadB5)*%
X10000000Y41900000D03*
%TO.P,R2,2*%
%TO.N,GND*%
X12000000Y41900000D03*
%TD*%
D24*
%TO.P,NEG1,1,1*%
%TO.N,GND*%
X36250000Y30750000D03*
%TD*%
%TO.P,POS1,1,1*%
%TO.N,Net-(POS1-Pad1)*%
X36250000Y16250000D03*
%TD*%
D25*
%TO.N,GND*%
X9000000Y26525836D03*
%TD*%
D26*
%TO.N,+VDC*%
X2800000Y19573528D02*
X6862500Y19573528D01*
X8000000Y18997056D02*
X8000000Y18250000D01*
X7423528Y19573528D02*
X8000000Y18997056D01*
X8000000Y18250000D02*
X7423528Y17673528D01*
%TO.N,Net-(POS1-Pad1)*%
X9137500Y19573528D02*
X10500000Y18211028D01*
X10500000Y18211028D02*
X10500000Y14750000D01*
X10500000Y14750000D02*
X9750000Y14000000D01*
%TO.N,+VDC*%
X7423528Y17673528D02*
X6862500Y17673528D01*
X6862500Y19573528D02*
X7423528Y19573528D01*
%TO.N,VBUS*%
X10270000Y36020000D02*
X10250000Y36000000D01*
X10750000Y33500000D02*
X9950000Y32700000D01*
X10250000Y36000000D02*
X10250000Y33250000D01*
X9985673Y30137500D02*
X9950000Y30137500D01*
X10250000Y36000000D02*
X7800000Y36000000D01*
X7800000Y36000000D02*
X7230000Y36570000D01*
D27*
X9985673Y30137500D02*
X11250000Y28873173D01*
D26*
X10962500Y33500000D02*
X10750000Y33500000D01*
D27*
X11250000Y23750000D02*
X11500000Y23500000D01*
D26*
X9950000Y32700000D02*
X9950000Y30137500D01*
X10270000Y37700000D02*
X10270000Y36020000D01*
D27*
X11250000Y28873173D02*
X11250000Y23750000D01*
D26*
X7230000Y36570000D02*
X7230000Y37750000D01*
%TO.N,GND*%
X9000000Y26525836D02*
X9000000Y27862500D01*
%TO.N,+VDC*%
X4300000Y6620000D02*
X3380000Y6620000D01*
X9950000Y27862500D02*
X9950000Y25700000D01*
X3380000Y6620000D02*
X2750000Y7250000D01*
X2750000Y19623528D02*
X2800000Y19573528D01*
X5500000Y27962500D02*
X2750000Y25212500D01*
X2750000Y25212500D02*
X2750000Y18250000D01*
X9750000Y25500000D02*
X7750000Y25500000D01*
X2750000Y7250000D02*
X2750000Y19623528D01*
X9950000Y25700000D02*
X9750000Y25500000D01*
X7750000Y25500000D02*
X5500000Y27750000D01*
D27*
%TO.N,Net-(J1-PadA5)*%
X8250000Y37750000D02*
X8250000Y41180000D01*
X8220000Y41180000D02*
X7500000Y41900000D01*
X8250000Y41180000D02*
X8220000Y41180000D01*
%TO.N,Net-(R4-Pad1)*%
X8050000Y31950000D02*
X6500000Y33500000D01*
X8050000Y30137500D02*
X8050000Y31950000D01*
%TO.N,Net-(J1-PadB5)*%
X9250000Y41180000D02*
X9280000Y41180000D01*
X9280000Y41180000D02*
X10000000Y41900000D01*
X9250000Y37750000D02*
X9250000Y41180000D01*
D26*
%TO.N,Net-(POS1-Pad1)*%
X9750000Y14000000D02*
X20000000Y14000000D01*
X20000000Y14000000D02*
X22250000Y16250000D01*
X22250000Y16250000D02*
X36250000Y16250000D01*
D27*
%TO.N,Net-(LED1-Pad1)*%
X10750000Y28396751D02*
X10750000Y25686828D01*
X8050000Y28246751D02*
X8703249Y28900000D01*
X10246751Y28900000D02*
X10750000Y28396751D01*
X9988172Y24925000D02*
X5900000Y24925000D01*
X5900000Y24925000D02*
X4475000Y23500000D01*
X8703249Y28900000D02*
X10246751Y28900000D01*
X10750000Y25686828D02*
X9988172Y24925000D01*
X8050000Y27862500D02*
X8050000Y28246751D01*
%TO.N,Net-(LED1-Pad2)*%
X9500000Y23500000D02*
X6525000Y23500000D01*
%TD*%
%TA.AperFunction,Conductor*%
%TO.N,GND*%
G36*
X54193039Y42979815D02*
G01*
X54238794Y42927011D01*
X54250000Y42875500D01*
X54250000Y4124500D01*
X54230315Y4057461D01*
X54177511Y4011706D01*
X54126000Y4000500D01*
X2374000Y4000500D01*
X2306961Y4020185D01*
X2261206Y4072989D01*
X2250000Y4124500D01*
X2250000Y6389271D01*
X2269685Y6456310D01*
X2322489Y6502065D01*
X2391647Y6512009D01*
X2455203Y6482984D01*
X2461681Y6476952D01*
X2802430Y6136203D01*
X2814620Y6122020D01*
X2827383Y6104676D01*
X2832869Y6100016D01*
X2832872Y6100012D01*
X2867254Y6070803D01*
X2874650Y6063983D01*
X2880304Y6058329D01*
X2901471Y6041582D01*
X2902357Y6040881D01*
X2905701Y6038139D01*
X2958936Y5992913D01*
X2989676Y5952672D01*
X2990744Y5949471D01*
X3022145Y5898727D01*
X3079043Y5806780D01*
X3079046Y5806776D01*
X3082834Y5800655D01*
X3206689Y5677016D01*
X3355666Y5585186D01*
X3521772Y5530090D01*
X3576316Y5524502D01*
X3621987Y5519822D01*
X3621995Y5519822D01*
X3625134Y5519500D01*
X4974866Y5519500D01*
X5079519Y5530359D01*
X5085956Y5532507D01*
X5085958Y5532507D01*
X5238695Y5583464D01*
X5245529Y5585744D01*
X5296273Y5617145D01*
X5388220Y5674043D01*
X5388224Y5674046D01*
X5394345Y5677834D01*
X5517984Y5801689D01*
X5527296Y5816795D01*
X5603960Y5941169D01*
X5609814Y5950666D01*
X5664910Y6116772D01*
X5675500Y6220134D01*
X5675500Y6536786D01*
X20744806Y6536786D01*
X20746575Y6506102D01*
X20759010Y6290455D01*
X20760129Y6285491D01*
X20810748Y6060877D01*
X20813255Y6049751D01*
X20906084Y5821139D01*
X20908746Y5816795D01*
X21032344Y5615102D01*
X21032348Y5615097D01*
X21035006Y5610759D01*
X21038338Y5606913D01*
X21038339Y5606911D01*
X21110018Y5524163D01*
X21196557Y5424259D01*
X21200467Y5421012D01*
X21200471Y5421009D01*
X21286007Y5349996D01*
X21386399Y5266649D01*
X21488967Y5206713D01*
X21595036Y5144731D01*
X21595040Y5144729D01*
X21599433Y5142162D01*
X21829939Y5054141D01*
X21950833Y5029544D01*
X22066741Y5005962D01*
X22066744Y5005962D01*
X22071726Y5004948D01*
X22233367Y4999021D01*
X22313221Y4996093D01*
X22313224Y4996093D01*
X22318300Y4995907D01*
X22563041Y5027259D01*
X22652644Y5054141D01*
X22794502Y5096700D01*
X22794506Y5096701D01*
X22799374Y5098162D01*
X23020954Y5206713D01*
X23025099Y5209670D01*
X23025103Y5209672D01*
X23217686Y5347041D01*
X23221829Y5349996D01*
X23396605Y5524163D01*
X23540588Y5724537D01*
X23649911Y5945736D01*
X23721639Y6181820D01*
X23753845Y6426450D01*
X23755643Y6500000D01*
X23753037Y6531703D01*
X23752619Y6536786D01*
X40744806Y6536786D01*
X40746575Y6506102D01*
X40759010Y6290455D01*
X40760129Y6285491D01*
X40810748Y6060877D01*
X40813255Y6049751D01*
X40906084Y5821139D01*
X40908746Y5816795D01*
X41032344Y5615102D01*
X41032348Y5615097D01*
X41035006Y5610759D01*
X41038338Y5606913D01*
X41038339Y5606911D01*
X41110018Y5524163D01*
X41196557Y5424259D01*
X41200467Y5421012D01*
X41200471Y5421009D01*
X41286007Y5349996D01*
X41386399Y5266649D01*
X41488967Y5206713D01*
X41595036Y5144731D01*
X41595040Y5144729D01*
X41599433Y5142162D01*
X41829939Y5054141D01*
X41950833Y5029544D01*
X42066741Y5005962D01*
X42066744Y5005962D01*
X42071726Y5004948D01*
X42233367Y4999021D01*
X42313221Y4996093D01*
X42313224Y4996093D01*
X42318300Y4995907D01*
X42563041Y5027259D01*
X42652644Y5054141D01*
X42794502Y5096700D01*
X42794506Y5096701D01*
X42799374Y5098162D01*
X43020954Y5206713D01*
X43025099Y5209670D01*
X43025103Y5209672D01*
X43217686Y5347041D01*
X43221829Y5349996D01*
X43396605Y5524163D01*
X43540588Y5724537D01*
X43649911Y5945736D01*
X43721639Y6181820D01*
X43753845Y6426450D01*
X43755643Y6500000D01*
X43753037Y6531703D01*
X43735842Y6740836D01*
X43735425Y6745911D01*
X43675316Y6985217D01*
X43671492Y6994013D01*
X43617680Y7117770D01*
X43576928Y7211493D01*
X43442905Y7418661D01*
X43380203Y7487569D01*
X43280278Y7597387D01*
X43280274Y7597391D01*
X43276846Y7601158D01*
X43083210Y7754082D01*
X42970794Y7816139D01*
X42871653Y7870868D01*
X42871650Y7870869D01*
X42867198Y7873327D01*
X42634610Y7955691D01*
X42391694Y7998961D01*
X42305090Y8000019D01*
X42150062Y8001913D01*
X42150060Y8001913D01*
X42144972Y8001975D01*
X41901070Y7964653D01*
X41666540Y7887997D01*
X41662026Y7885647D01*
X41452194Y7776416D01*
X41452188Y7776412D01*
X41447679Y7774065D01*
X41250364Y7625917D01*
X41246848Y7622238D01*
X41246846Y7622236D01*
X41226704Y7601158D01*
X41079896Y7447532D01*
X41077032Y7443333D01*
X41077030Y7443331D01*
X40968134Y7283695D01*
X40940851Y7243700D01*
X40836965Y7019896D01*
X40771026Y6782129D01*
X40744806Y6536786D01*
X23752619Y6536786D01*
X23735842Y6740836D01*
X23735425Y6745911D01*
X23675316Y6985217D01*
X23671492Y6994013D01*
X23617680Y7117770D01*
X23576928Y7211493D01*
X23442905Y7418661D01*
X23380203Y7487569D01*
X23280278Y7597387D01*
X23280274Y7597391D01*
X23276846Y7601158D01*
X23083210Y7754082D01*
X22970794Y7816139D01*
X22871653Y7870868D01*
X22871650Y7870869D01*
X22867198Y7873327D01*
X22634610Y7955691D01*
X22391694Y7998961D01*
X22305090Y8000019D01*
X22150062Y8001913D01*
X22150060Y8001913D01*
X22144972Y8001975D01*
X21901070Y7964653D01*
X21666540Y7887997D01*
X21662026Y7885647D01*
X21452194Y7776416D01*
X21452188Y7776412D01*
X21447679Y7774065D01*
X21250364Y7625917D01*
X21246848Y7622238D01*
X21246846Y7622236D01*
X21226704Y7601158D01*
X21079896Y7447532D01*
X21077032Y7443333D01*
X21077030Y7443331D01*
X20968134Y7283695D01*
X20940851Y7243700D01*
X20836965Y7019896D01*
X20771026Y6782129D01*
X20744806Y6536786D01*
X5675500Y6536786D01*
X5675500Y7019866D01*
X5664641Y7124519D01*
X5634201Y7215761D01*
X5611536Y7283695D01*
X5609256Y7290529D01*
X5529966Y7418661D01*
X5520957Y7433220D01*
X5520954Y7433224D01*
X5517166Y7439345D01*
X5393311Y7562984D01*
X5329911Y7602064D01*
X5283171Y7653999D01*
X5271929Y7722958D01*
X5299754Y7787048D01*
X5318380Y7805135D01*
X5332389Y7816139D01*
X5340898Y7824242D01*
X5470731Y7973862D01*
X5477558Y7983432D01*
X5576755Y8154901D01*
X5581646Y8165584D01*
X5646628Y8352712D01*
X5647276Y8355370D01*
X5645750Y8366071D01*
X5632398Y8370000D01*
X4174000Y8370000D01*
X4106961Y8389685D01*
X4061206Y8442489D01*
X4050000Y8494000D01*
X4050000Y8887830D01*
X4550000Y8887830D01*
X4554404Y8872831D01*
X4555774Y8871644D01*
X4563332Y8870000D01*
X5628423Y8870000D01*
X5641740Y8873910D01*
X5643074Y8883189D01*
X5621185Y8974016D01*
X5617358Y8985129D01*
X5535366Y9165459D01*
X5529510Y9175644D01*
X5414896Y9337221D01*
X5407223Y9346110D01*
X5264124Y9483097D01*
X5254895Y9490386D01*
X5088488Y9597834D01*
X5078042Y9603249D01*
X4894318Y9677291D01*
X4883040Y9680632D01*
X4687210Y9718874D01*
X4678485Y9719934D01*
X4675795Y9720000D01*
X4567830Y9720000D01*
X4552831Y9715596D01*
X4551644Y9714226D01*
X4550000Y9706668D01*
X4550000Y8887830D01*
X4050000Y8887830D01*
X4050000Y9702170D01*
X4045596Y9717169D01*
X4044226Y9718356D01*
X4036668Y9720000D01*
X3975514Y9720000D01*
X3969601Y9719718D01*
X3821929Y9705629D01*
X3810386Y9703407D01*
X3659406Y9659115D01*
X3589536Y9659132D01*
X3530767Y9696921D01*
X3501758Y9760484D01*
X3500500Y9778101D01*
X3500500Y13106028D01*
X5100000Y13106028D01*
X5100363Y13099331D01*
X5105803Y13049256D01*
X5109371Y13034247D01*
X5153817Y12915689D01*
X5162212Y12900354D01*
X5237516Y12799876D01*
X5249876Y12787516D01*
X5350354Y12712212D01*
X5365689Y12703817D01*
X5484247Y12659371D01*
X5499256Y12655803D01*
X5549331Y12650363D01*
X5556028Y12650000D01*
X5982170Y12650000D01*
X5997169Y12654404D01*
X5998356Y12655774D01*
X6000000Y12663332D01*
X6000000Y12667830D01*
X6500000Y12667830D01*
X6504404Y12652831D01*
X6505774Y12651644D01*
X6513332Y12650000D01*
X6943972Y12650000D01*
X6950669Y12650363D01*
X7000744Y12655803D01*
X7015753Y12659371D01*
X7134311Y12703817D01*
X7149646Y12712212D01*
X7250124Y12787516D01*
X7262484Y12799876D01*
X7337788Y12900354D01*
X7346183Y12915689D01*
X7390629Y13034247D01*
X7394197Y13049256D01*
X7399637Y13099331D01*
X7400000Y13106028D01*
X7400000Y13732170D01*
X7395596Y13747169D01*
X7394226Y13748356D01*
X7386668Y13750000D01*
X6517830Y13750000D01*
X6502831Y13745596D01*
X6501644Y13744226D01*
X6500000Y13736668D01*
X6500000Y12667830D01*
X6000000Y12667830D01*
X6000000Y13732170D01*
X5995596Y13747169D01*
X5994226Y13748356D01*
X5986668Y13750000D01*
X5117830Y13750000D01*
X5102831Y13745596D01*
X5101644Y13744226D01*
X5100000Y13736668D01*
X5100000Y13106028D01*
X3500500Y13106028D01*
X3500500Y14267830D01*
X5100000Y14267830D01*
X5104404Y14252831D01*
X5105774Y14251644D01*
X5113332Y14250000D01*
X5982170Y14250000D01*
X5997169Y14254404D01*
X5998356Y14255774D01*
X6000000Y14263332D01*
X6000000Y14267830D01*
X6500000Y14267830D01*
X6504404Y14252831D01*
X6505774Y14251644D01*
X6513332Y14250000D01*
X7382170Y14250000D01*
X7397169Y14254404D01*
X7398356Y14255774D01*
X7400000Y14263332D01*
X7400000Y14893972D01*
X7399637Y14900669D01*
X7394197Y14950744D01*
X7390629Y14965753D01*
X7346183Y15084311D01*
X7337788Y15099646D01*
X7262484Y15200124D01*
X7250124Y15212484D01*
X7149646Y15287788D01*
X7134311Y15296183D01*
X7015753Y15340629D01*
X7000744Y15344197D01*
X6950669Y15349637D01*
X6943972Y15350000D01*
X6517830Y15350000D01*
X6502831Y15345596D01*
X6501644Y15344226D01*
X6500000Y15336668D01*
X6500000Y14267830D01*
X6000000Y14267830D01*
X6000000Y15332170D01*
X5995596Y15347169D01*
X5994226Y15348356D01*
X5986668Y15350000D01*
X5556028Y15350000D01*
X5549331Y15349637D01*
X5499256Y15344197D01*
X5484247Y15340629D01*
X5365689Y15296183D01*
X5350354Y15287788D01*
X5249876Y15212484D01*
X5237516Y15200124D01*
X5162212Y15099646D01*
X5153817Y15084311D01*
X5109371Y14965753D01*
X5105803Y14950744D01*
X5100363Y14900669D01*
X5100000Y14893972D01*
X5100000Y14267830D01*
X3500500Y14267830D01*
X3500500Y18699028D01*
X3520185Y18766067D01*
X3572989Y18811822D01*
X3624500Y18823028D01*
X6067674Y18823028D01*
X6102268Y18818104D01*
X6247431Y18775930D01*
X6284306Y18773028D01*
X6988500Y18773028D01*
X7055539Y18753343D01*
X7101294Y18700539D01*
X7112500Y18649028D01*
X7112500Y18598028D01*
X7092815Y18530989D01*
X7040011Y18485234D01*
X6988500Y18474028D01*
X6284306Y18474028D01*
X6247431Y18471126D01*
X6089602Y18425272D01*
X6082888Y18421302D01*
X6082887Y18421301D01*
X6031306Y18390796D01*
X5968185Y18373528D01*
X5720534Y18373528D01*
X5705971Y18369252D01*
X5705006Y18363789D01*
X5746540Y18220826D01*
X5755789Y18199452D01*
X5752950Y18198223D01*
X5766605Y18144433D01*
X5753186Y18098728D01*
X5755326Y18097802D01*
X5752227Y18090641D01*
X5748256Y18083926D01*
X5702402Y17926097D01*
X5699500Y17889222D01*
X5699500Y17457834D01*
X5702402Y17420959D01*
X5748256Y17263130D01*
X5831919Y17121663D01*
X5948135Y17005447D01*
X6089602Y16921784D01*
X6247431Y16875930D01*
X6284306Y16873028D01*
X7440694Y16873028D01*
X7477569Y16875930D01*
X7635398Y16921784D01*
X7650612Y16930781D01*
X7770149Y17001475D01*
X7770150Y17001476D01*
X7776865Y17005447D01*
X7782240Y17010822D01*
X7789734Y17016172D01*
X7822273Y17037505D01*
X7825917Y17039805D01*
X7887688Y17077289D01*
X7895980Y17084613D01*
X7896005Y17084585D01*
X7898894Y17087146D01*
X7902191Y17089903D01*
X7908213Y17093851D01*
X7913167Y17099080D01*
X7913170Y17099083D01*
X7930794Y17117686D01*
X7991189Y17152816D01*
X8060990Y17149718D01*
X8108494Y17120088D01*
X8223135Y17005447D01*
X8364602Y16921784D01*
X8522431Y16875930D01*
X8559306Y16873028D01*
X9625500Y16873028D01*
X9692539Y16853343D01*
X9738294Y16800539D01*
X9749500Y16749028D01*
X9749500Y15474499D01*
X9729815Y15407460D01*
X9677011Y15361705D01*
X9625500Y15350499D01*
X9052624Y15350499D01*
X8991420Y15343851D01*
X8857176Y15293526D01*
X8850111Y15288231D01*
X8850109Y15288230D01*
X8758700Y15219722D01*
X8742454Y15207546D01*
X8656474Y15092824D01*
X8653374Y15084556D01*
X8653374Y15084555D01*
X8650553Y15077030D01*
X8606149Y14958580D01*
X8599500Y14897377D01*
X8599501Y13102624D01*
X8606149Y13041420D01*
X8656474Y12907176D01*
X8742454Y12792454D01*
X8749519Y12787159D01*
X8850109Y12711770D01*
X8850111Y12711769D01*
X8857176Y12706474D01*
X8991420Y12656149D01*
X9052623Y12649500D01*
X9749896Y12649500D01*
X10447376Y12649501D01*
X10508580Y12656149D01*
X10642824Y12706474D01*
X10649889Y12711769D01*
X10649891Y12711770D01*
X10750481Y12787159D01*
X10757546Y12792454D01*
X10843526Y12907176D01*
X10893851Y13041420D01*
X10900500Y13102623D01*
X10900500Y13125500D01*
X10920185Y13192539D01*
X10972989Y13238294D01*
X11024500Y13249500D01*
X19933696Y13249500D01*
X19952344Y13248090D01*
X19973630Y13244852D01*
X19980811Y13245436D01*
X19980813Y13245436D01*
X20025761Y13249092D01*
X20035813Y13249500D01*
X20043822Y13249500D01*
X20071779Y13252759D01*
X20076078Y13253185D01*
X20085821Y13253977D01*
X20140884Y13258455D01*
X20140888Y13258456D01*
X20148059Y13259039D01*
X20154907Y13261257D01*
X20160815Y13262438D01*
X20166672Y13263823D01*
X20173828Y13264657D01*
X20241761Y13289315D01*
X20245848Y13290718D01*
X20307690Y13310752D01*
X20314546Y13312973D01*
X20320705Y13316711D01*
X20326184Y13319219D01*
X20331562Y13321912D01*
X20338331Y13324369D01*
X20398744Y13363977D01*
X20402389Y13366277D01*
X20464160Y13403761D01*
X20472452Y13411085D01*
X20472477Y13411057D01*
X20475366Y13413618D01*
X20478663Y13416375D01*
X20484685Y13420323D01*
X20537402Y13475972D01*
X20539741Y13478374D01*
X22524548Y15463181D01*
X22585871Y15496666D01*
X22612229Y15499500D01*
X25625343Y15499500D01*
X25692382Y15479815D01*
X25724952Y15446941D01*
X25725935Y15447679D01*
X25839349Y15296626D01*
X25874083Y15250364D01*
X25877762Y15246848D01*
X25877764Y15246846D01*
X25926656Y15200124D01*
X26052468Y15079896D01*
X26056667Y15077032D01*
X26056669Y15077030D01*
X26219644Y14965856D01*
X26256300Y14940851D01*
X26480104Y14836965D01*
X26485008Y14835605D01*
X26712970Y14772385D01*
X26712972Y14772385D01*
X26717871Y14771026D01*
X26919292Y14749500D01*
X45562554Y14749500D01*
X45745911Y14764575D01*
X45985217Y14824684D01*
X46010334Y14835605D01*
X46099785Y14874500D01*
X46211493Y14923072D01*
X46418661Y15057095D01*
X46487569Y15119797D01*
X46597387Y15219722D01*
X46597391Y15219726D01*
X46601158Y15223154D01*
X46754082Y15416790D01*
X46873327Y15632802D01*
X46955691Y15865390D01*
X46998961Y16108306D01*
X47001975Y16355028D01*
X46964653Y16598930D01*
X46887997Y16833460D01*
X46842072Y16921681D01*
X46776416Y17047806D01*
X46776412Y17047812D01*
X46774065Y17052321D01*
X46625917Y17249636D01*
X46618824Y17256415D01*
X46451208Y17416591D01*
X46447532Y17420104D01*
X46437019Y17427276D01*
X46247909Y17556278D01*
X46247907Y17556279D01*
X46243700Y17559149D01*
X46019896Y17663035D01*
X45971141Y17676556D01*
X45787030Y17727615D01*
X45787028Y17727615D01*
X45782129Y17728974D01*
X45580708Y17750500D01*
X26937446Y17750500D01*
X26754089Y17735425D01*
X26514783Y17675316D01*
X26510116Y17673287D01*
X26510114Y17673286D01*
X26452603Y17648279D01*
X26288507Y17576928D01*
X26081339Y17442905D01*
X26077571Y17439476D01*
X25902613Y17280278D01*
X25902609Y17280274D01*
X25898842Y17276846D01*
X25745918Y17083210D01*
X25743459Y17078756D01*
X25743458Y17078754D01*
X25735630Y17064574D01*
X25685998Y17015396D01*
X25627072Y17000500D01*
X22316310Y17000500D01*
X22297663Y17001910D01*
X22276370Y17005149D01*
X22269189Y17004565D01*
X22269187Y17004565D01*
X22224231Y17000908D01*
X22214178Y17000500D01*
X22206178Y17000500D01*
X22178242Y16997243D01*
X22173943Y16996818D01*
X22109118Y16991545D01*
X22109116Y16991545D01*
X22101941Y16990961D01*
X22095093Y16988743D01*
X22089174Y16987560D01*
X22083324Y16986177D01*
X22076172Y16985343D01*
X22008246Y16960687D01*
X22004159Y16959285D01*
X21935454Y16937027D01*
X21929293Y16933288D01*
X21923817Y16930781D01*
X21918441Y16928089D01*
X21911669Y16925631D01*
X21905645Y16921682D01*
X21905644Y16921681D01*
X21851257Y16886023D01*
X21847596Y16883713D01*
X21790560Y16849103D01*
X21790557Y16849101D01*
X21785841Y16846239D01*
X21777548Y16838916D01*
X21777523Y16838944D01*
X21774634Y16836381D01*
X21771341Y16833628D01*
X21765315Y16829677D01*
X21760363Y16824450D01*
X21760361Y16824448D01*
X21712617Y16774048D01*
X21710277Y16771645D01*
X19725452Y14786819D01*
X19664129Y14753334D01*
X19637771Y14750500D01*
X11374500Y14750500D01*
X11307461Y14770185D01*
X11261706Y14822989D01*
X11250500Y14874500D01*
X11250500Y18144724D01*
X11251910Y18163373D01*
X11254064Y18177535D01*
X11255148Y18184658D01*
X11250908Y18236789D01*
X11250500Y18246841D01*
X11250500Y18254850D01*
X11247241Y18282807D01*
X11246815Y18287110D01*
X11241545Y18351912D01*
X11241544Y18351916D01*
X11240961Y18359087D01*
X11238743Y18365935D01*
X11237562Y18371843D01*
X11236177Y18377700D01*
X11235343Y18384856D01*
X11210685Y18452789D01*
X11209282Y18456876D01*
X11189248Y18518718D01*
X11187027Y18525574D01*
X11183289Y18531733D01*
X11180781Y18537212D01*
X11178088Y18542590D01*
X11175631Y18549359D01*
X11157223Y18577436D01*
X11136023Y18609772D01*
X11133714Y18613431D01*
X11112113Y18649028D01*
X11096239Y18675188D01*
X11088915Y18683480D01*
X11088943Y18683505D01*
X11086382Y18686394D01*
X11083625Y18689691D01*
X11079677Y18695713D01*
X11024028Y18748430D01*
X11021626Y18750769D01*
X10336819Y19435576D01*
X10303334Y19496899D01*
X10300500Y19523257D01*
X10300500Y19789222D01*
X10297598Y19826097D01*
X10251744Y19983926D01*
X10168081Y20125393D01*
X10051865Y20241609D01*
X9910398Y20325272D01*
X9897732Y20328952D01*
X9846924Y20343713D01*
X9752569Y20371126D01*
X9715694Y20374028D01*
X8559306Y20374028D01*
X8522431Y20371126D01*
X8428076Y20343713D01*
X8377269Y20328952D01*
X8364602Y20325272D01*
X8223135Y20241609D01*
X8107933Y20126407D01*
X8046610Y20092922D01*
X7976918Y20097906D01*
X7939973Y20119583D01*
X7936286Y20122715D01*
X7928884Y20129539D01*
X7923225Y20135198D01*
X7901148Y20152665D01*
X7897839Y20155378D01*
X7848268Y20197492D01*
X7848266Y20197493D01*
X7842773Y20202160D01*
X7836355Y20205437D01*
X7831311Y20208801D01*
X7826224Y20211942D01*
X7820579Y20216409D01*
X7814051Y20219460D01*
X7800870Y20225621D01*
X7780260Y20238214D01*
X7776865Y20241609D01*
X7770156Y20245577D01*
X7770153Y20245579D01*
X7642113Y20321301D01*
X7642112Y20321302D01*
X7635398Y20325272D01*
X7622732Y20328952D01*
X7571924Y20343713D01*
X7477569Y20371126D01*
X7440694Y20374028D01*
X6284306Y20374028D01*
X6247431Y20371126D01*
X6153076Y20343713D01*
X6102269Y20328952D01*
X6067674Y20324028D01*
X3624500Y20324028D01*
X3557461Y20343713D01*
X3511706Y20396517D01*
X3500500Y20448028D01*
X3500500Y22346603D01*
X3520185Y22413642D01*
X3572989Y22459397D01*
X3642147Y22469341D01*
X3689566Y22452160D01*
X3824533Y22368966D01*
X3824536Y22368965D01*
X3830666Y22365186D01*
X3996772Y22310090D01*
X4051316Y22304502D01*
X4096987Y22299822D01*
X4096995Y22299822D01*
X4100134Y22299500D01*
X4849866Y22299500D01*
X4954519Y22310359D01*
X4960956Y22312507D01*
X4960958Y22312507D01*
X5113695Y22363464D01*
X5120529Y22365744D01*
X5171273Y22397145D01*
X5263220Y22454043D01*
X5263224Y22454046D01*
X5269345Y22457834D01*
X5392984Y22581689D01*
X5396764Y22587821D01*
X5401229Y22593475D01*
X5403154Y22591955D01*
X5446460Y22630932D01*
X5515419Y22642176D01*
X5579510Y22614353D01*
X5598962Y22591945D01*
X5599569Y22592426D01*
X5604043Y22586781D01*
X5607834Y22580655D01*
X5731689Y22457016D01*
X5880666Y22365186D01*
X6046772Y22310090D01*
X6101316Y22304502D01*
X6146987Y22299822D01*
X6146995Y22299822D01*
X6150134Y22299500D01*
X6899866Y22299500D01*
X7004519Y22310359D01*
X7010956Y22312507D01*
X7010958Y22312507D01*
X7163695Y22363464D01*
X7170529Y22365744D01*
X7221273Y22397145D01*
X7313220Y22454043D01*
X7313224Y22454046D01*
X7319345Y22457834D01*
X7442984Y22581689D01*
X7449603Y22592426D01*
X7531035Y22724535D01*
X7531037Y22724539D01*
X7534814Y22730666D01*
X7554342Y22789539D01*
X7594131Y22846972D01*
X7658655Y22873776D01*
X7672036Y22874500D01*
X8328009Y22874500D01*
X8395048Y22854815D01*
X8440803Y22802011D01*
X8445635Y22789745D01*
X8465744Y22729471D01*
X8469533Y22723348D01*
X8469534Y22723346D01*
X8554043Y22586780D01*
X8554046Y22586776D01*
X8557834Y22580655D01*
X8681689Y22457016D01*
X8830666Y22365186D01*
X8996772Y22310090D01*
X9051316Y22304502D01*
X9096987Y22299822D01*
X9096995Y22299822D01*
X9100134Y22299500D01*
X9899866Y22299500D01*
X10004519Y22310359D01*
X10010956Y22312507D01*
X10010958Y22312507D01*
X10163695Y22363464D01*
X10170529Y22365744D01*
X10221273Y22397145D01*
X10313220Y22454043D01*
X10313224Y22454046D01*
X10319345Y22457834D01*
X10412187Y22550838D01*
X10473481Y22584376D01*
X10543177Y22579452D01*
X10587550Y22550991D01*
X10681689Y22457016D01*
X10830666Y22365186D01*
X10996772Y22310090D01*
X11051316Y22304502D01*
X11096987Y22299822D01*
X11096995Y22299822D01*
X11100134Y22299500D01*
X11899866Y22299500D01*
X12004519Y22310359D01*
X12010956Y22312507D01*
X12010958Y22312507D01*
X12163695Y22363464D01*
X12170529Y22365744D01*
X12221273Y22397145D01*
X12313220Y22454043D01*
X12313224Y22454046D01*
X12319345Y22457834D01*
X12442984Y22581689D01*
X12449603Y22592426D01*
X12531037Y22724539D01*
X12534814Y22730666D01*
X12589910Y22896772D01*
X12600500Y23000134D01*
X12600500Y23999866D01*
X12589641Y24104519D01*
X12534256Y24270529D01*
X12499543Y24326624D01*
X12445957Y24413220D01*
X12445954Y24413224D01*
X12442166Y24419345D01*
X12318311Y24542984D01*
X12306798Y24550081D01*
X12219879Y24603658D01*
X12169334Y24634814D01*
X12003228Y24689910D01*
X11986860Y24691587D01*
X11922176Y24718003D01*
X11882042Y24775196D01*
X11875500Y24814941D01*
X11875500Y28795402D01*
X11876021Y28806455D01*
X11877672Y28813841D01*
X11875561Y28881029D01*
X11875500Y28884923D01*
X11875500Y28912523D01*
X11874999Y28916492D01*
X11874080Y28928149D01*
X11872954Y28964006D01*
X11872954Y28964007D01*
X11872709Y28971801D01*
X11869091Y28984256D01*
X11867120Y28991039D01*
X11863175Y29010089D01*
X11862466Y29015700D01*
X11860664Y29029965D01*
X11856833Y29039641D01*
X11844584Y29070580D01*
X11840800Y29081630D01*
X11836251Y29097288D01*
X11828617Y29123563D01*
X11824648Y29130275D01*
X11818419Y29140809D01*
X11809864Y29158273D01*
X11805359Y29169649D01*
X11802486Y29176905D01*
X11776806Y29212251D01*
X11770400Y29222004D01*
X11768108Y29225880D01*
X11748170Y29259594D01*
X11734006Y29273758D01*
X11721369Y29288554D01*
X11714182Y29298447D01*
X11714176Y29298453D01*
X11709594Y29304760D01*
X11675947Y29332595D01*
X11667306Y29340458D01*
X10786819Y30220945D01*
X10753334Y30282268D01*
X10750500Y30308626D01*
X10750500Y30482094D01*
X25523454Y30482094D01*
X25535066Y30406213D01*
X25537414Y30396355D01*
X25610886Y30171569D01*
X25614816Y30162220D01*
X25724009Y29952461D01*
X25729416Y29943876D01*
X25871402Y29754767D01*
X25878139Y29747179D01*
X26049108Y29583799D01*
X26056985Y29577420D01*
X26252344Y29444156D01*
X26261166Y29439144D01*
X26475658Y29339581D01*
X26485183Y29336076D01*
X26713064Y29272878D01*
X26723020Y29270979D01*
X26916048Y29250350D01*
X26922615Y29250000D01*
X35982170Y29250000D01*
X35997169Y29254404D01*
X35998356Y29255774D01*
X36000000Y29263332D01*
X36000000Y29267830D01*
X36500000Y29267830D01*
X36504404Y29252831D01*
X36505774Y29251644D01*
X36513332Y29250000D01*
X45559980Y29250000D01*
X45565074Y29250209D01*
X45740754Y29264653D01*
X45750768Y29266311D01*
X45980118Y29323919D01*
X45989724Y29327189D01*
X46206591Y29421486D01*
X46215524Y29426275D01*
X46414086Y29554731D01*
X46422116Y29560915D01*
X46597031Y29720076D01*
X46603940Y29727484D01*
X46750512Y29913077D01*
X46756121Y29921518D01*
X46870410Y30128553D01*
X46874569Y30137810D01*
X46953504Y30360712D01*
X46956100Y30370536D01*
X46976034Y30482445D01*
X46974598Y30495532D01*
X46960271Y30500000D01*
X36517830Y30500000D01*
X36502831Y30495596D01*
X36501644Y30494226D01*
X36500000Y30486668D01*
X36500000Y29267830D01*
X36000000Y29267830D01*
X36000000Y30482170D01*
X35995596Y30497169D01*
X35994226Y30498356D01*
X35986668Y30500000D01*
X25538544Y30500000D01*
X25525409Y30496143D01*
X25523454Y30482094D01*
X10750500Y30482094D01*
X10750500Y30715694D01*
X10747598Y30752569D01*
X10705424Y30897732D01*
X10700500Y30932326D01*
X10700500Y31017555D01*
X25523966Y31017555D01*
X25525402Y31004468D01*
X25539729Y31000000D01*
X35982170Y31000000D01*
X35997169Y31004404D01*
X35998356Y31005774D01*
X36000000Y31013332D01*
X36000000Y31017830D01*
X36500000Y31017830D01*
X36504404Y31002831D01*
X36505774Y31001644D01*
X36513332Y31000000D01*
X46961456Y31000000D01*
X46974591Y31003857D01*
X46976546Y31017906D01*
X46964934Y31093787D01*
X46962586Y31103645D01*
X46889114Y31328431D01*
X46885184Y31337780D01*
X46775991Y31547539D01*
X46770584Y31556124D01*
X46628598Y31745233D01*
X46621861Y31752821D01*
X46450892Y31916201D01*
X46443015Y31922580D01*
X46247656Y32055844D01*
X46238834Y32060856D01*
X46024342Y32160419D01*
X46014817Y32163924D01*
X45786936Y32227122D01*
X45776980Y32229021D01*
X45583952Y32249650D01*
X45577385Y32250000D01*
X36517830Y32250000D01*
X36502831Y32245596D01*
X36501644Y32244226D01*
X36500000Y32236668D01*
X36500000Y31017830D01*
X36000000Y31017830D01*
X36000000Y32232170D01*
X35995596Y32247169D01*
X35994226Y32248356D01*
X35986668Y32250000D01*
X26940020Y32250000D01*
X26934926Y32249791D01*
X26759246Y32235347D01*
X26749232Y32233689D01*
X26519882Y32176081D01*
X26510276Y32172811D01*
X26293409Y32078514D01*
X26284476Y32073725D01*
X26085914Y31945269D01*
X26077884Y31939085D01*
X25902969Y31779924D01*
X25896060Y31772516D01*
X25749488Y31586923D01*
X25743879Y31578482D01*
X25629590Y31371447D01*
X25625431Y31362190D01*
X25546496Y31139288D01*
X25543900Y31129464D01*
X25523966Y31017555D01*
X10700500Y31017555D01*
X10700500Y32150500D01*
X10720185Y32217539D01*
X10772989Y32263294D01*
X10824500Y32274500D01*
X11349866Y32274500D01*
X11454519Y32285359D01*
X11460956Y32287507D01*
X11460958Y32287507D01*
X11613695Y32338464D01*
X11620529Y32340744D01*
X11731520Y32409427D01*
X11763220Y32429043D01*
X11763224Y32429046D01*
X11769345Y32432834D01*
X11892984Y32556689D01*
X11896764Y32562821D01*
X11901229Y32568475D01*
X11903030Y32567053D01*
X11946742Y32606403D01*
X12015700Y32617654D01*
X12079794Y32589837D01*
X12099380Y32567277D01*
X12099963Y32567739D01*
X12113325Y32550880D01*
X12226904Y32437499D01*
X12238135Y32428630D01*
X12374741Y32344425D01*
X12387718Y32338373D01*
X12540446Y32287715D01*
X12553613Y32284892D01*
X12647019Y32275322D01*
X12653325Y32275000D01*
X12769670Y32275000D01*
X12784669Y32279404D01*
X12785856Y32280774D01*
X12787500Y32288332D01*
X12787500Y32292831D01*
X13287500Y32292831D01*
X13291904Y32277832D01*
X13293274Y32276645D01*
X13300832Y32275001D01*
X13421636Y32275001D01*
X13428015Y32275331D01*
X13522671Y32285151D01*
X13535849Y32287997D01*
X13688481Y32338920D01*
X13701443Y32344991D01*
X13837907Y32429438D01*
X13849120Y32438325D01*
X13962501Y32551904D01*
X13971370Y32563135D01*
X14055575Y32699741D01*
X14061627Y32712718D01*
X14112285Y32865446D01*
X14115108Y32878613D01*
X14124678Y32972019D01*
X14125000Y32978325D01*
X14125000Y33232170D01*
X14120596Y33247169D01*
X14119226Y33248356D01*
X14111668Y33250000D01*
X13305330Y33250000D01*
X13290331Y33245596D01*
X13289144Y33244226D01*
X13287500Y33236668D01*
X13287500Y32292831D01*
X12787500Y32292831D01*
X12787500Y33767830D01*
X13287500Y33767830D01*
X13291904Y33752831D01*
X13293274Y33751644D01*
X13300832Y33750000D01*
X14107169Y33750000D01*
X14122168Y33754404D01*
X14123355Y33755774D01*
X14124999Y33763332D01*
X14124999Y34021636D01*
X14124669Y34028015D01*
X14114849Y34122671D01*
X14112003Y34135849D01*
X14061080Y34288481D01*
X14055009Y34301443D01*
X13970562Y34437907D01*
X13961675Y34449120D01*
X13848096Y34562501D01*
X13836865Y34571370D01*
X13700259Y34655575D01*
X13687282Y34661627D01*
X13534554Y34712285D01*
X13521387Y34715108D01*
X13427981Y34724678D01*
X13421675Y34725000D01*
X13305330Y34725000D01*
X13290331Y34720596D01*
X13289144Y34719226D01*
X13287500Y34711668D01*
X13287500Y33767830D01*
X12787500Y33767830D01*
X12787500Y34707169D01*
X12783096Y34722168D01*
X12781726Y34723355D01*
X12774168Y34724999D01*
X12653364Y34724999D01*
X12646985Y34724669D01*
X12552329Y34714849D01*
X12539151Y34712003D01*
X12386519Y34661080D01*
X12373557Y34655009D01*
X12237093Y34570562D01*
X12225880Y34561675D01*
X12112499Y34448096D01*
X12099169Y34431216D01*
X12097288Y34432701D01*
X12053838Y34393593D01*
X11984879Y34382347D01*
X11920787Y34410169D01*
X11900967Y34432999D01*
X11900431Y34432574D01*
X11895957Y34438219D01*
X11892166Y34444345D01*
X11790772Y34545562D01*
X11773409Y34562895D01*
X11773408Y34562895D01*
X11768311Y34567984D01*
X11619334Y34659814D01*
X11453228Y34714910D01*
X11397731Y34720596D01*
X11353013Y34725178D01*
X11353005Y34725178D01*
X11349866Y34725500D01*
X11124500Y34725500D01*
X11057461Y34745185D01*
X11011706Y34797989D01*
X11000500Y34849500D01*
X11000500Y35832718D01*
X11004053Y35862190D01*
X11018503Y35921244D01*
X11019815Y35926606D01*
X11020500Y35937648D01*
X11020536Y35937646D01*
X11020769Y35941500D01*
X11021151Y35945782D01*
X11022617Y35952830D01*
X11020545Y36029415D01*
X11020500Y36032769D01*
X11020500Y36076000D01*
X11040185Y36143039D01*
X11092989Y36188794D01*
X11144500Y36200000D01*
X11232170Y36200000D01*
X11247169Y36204404D01*
X11248356Y36205774D01*
X11250000Y36213332D01*
X11250000Y36217830D01*
X11750000Y36217830D01*
X11754404Y36202831D01*
X11755774Y36201644D01*
X11763332Y36200000D01*
X11993972Y36200000D01*
X12000669Y36200363D01*
X12050744Y36205803D01*
X12065753Y36209371D01*
X12184311Y36253817D01*
X12199646Y36262212D01*
X12300124Y36337516D01*
X12312484Y36349876D01*
X12387788Y36450354D01*
X12396183Y36465689D01*
X12440629Y36584247D01*
X12444197Y36599256D01*
X12449637Y36649331D01*
X12450000Y36656028D01*
X12450000Y36966741D01*
X12469685Y37033780D01*
X12522489Y37079535D01*
X12591647Y37089479D01*
X12628747Y37078001D01*
X12663997Y37060656D01*
X12675707Y37056301D01*
X12752747Y37036234D01*
X12766620Y37036661D01*
X12769812Y37044262D01*
X13270000Y37044262D01*
X13273910Y37030945D01*
X13279918Y37030081D01*
X13454737Y37094402D01*
X13465968Y37099880D01*
X13627954Y37200315D01*
X13637858Y37207943D01*
X13776334Y37338893D01*
X13784501Y37348354D01*
X13893821Y37504479D01*
X13899919Y37515389D01*
X13975610Y37690303D01*
X13979392Y37702226D01*
X14018676Y37890263D01*
X14019900Y37899693D01*
X14019916Y37899987D01*
X14020000Y37903198D01*
X14020000Y38232170D01*
X14015596Y38247169D01*
X14014226Y38248356D01*
X14006668Y38250000D01*
X13287830Y38250000D01*
X13272831Y38245596D01*
X13271644Y38244226D01*
X13270000Y38236668D01*
X13270000Y37044262D01*
X12769812Y37044262D01*
X12770000Y37044710D01*
X12770000Y38767830D01*
X13270000Y38767830D01*
X13274404Y38752831D01*
X13275774Y38751644D01*
X13283332Y38750000D01*
X14002170Y38750000D01*
X14017169Y38754404D01*
X14018356Y38755774D01*
X14020000Y38763332D01*
X14020000Y39047632D01*
X14019683Y39053894D01*
X14005262Y39195861D01*
X14002748Y39208111D01*
X13945752Y39389982D01*
X13940831Y39401465D01*
X13848428Y39568165D01*
X13841296Y39578427D01*
X13717266Y39723134D01*
X13708210Y39731758D01*
X13557620Y39848568D01*
X13547013Y39855196D01*
X13376003Y39939344D01*
X13364293Y39943699D01*
X13287253Y39963766D01*
X13273380Y39963339D01*
X13270000Y39955290D01*
X13270000Y38767830D01*
X12770000Y38767830D01*
X12770000Y39955738D01*
X12766090Y39969055D01*
X12760082Y39969919D01*
X12585263Y39905598D01*
X12574032Y39900120D01*
X12412046Y39799685D01*
X12402142Y39792057D01*
X12263666Y39661107D01*
X12255499Y39651646D01*
X12146179Y39495521D01*
X12140081Y39484611D01*
X12064386Y39309688D01*
X12058709Y39291792D01*
X12057354Y39292222D01*
X12027803Y39237037D01*
X11966755Y39203053D01*
X11939409Y39200000D01*
X11767830Y39200000D01*
X11752831Y39195596D01*
X11751644Y39194226D01*
X11750000Y39186668D01*
X11750000Y36217830D01*
X11250000Y36217830D01*
X11250000Y39182170D01*
X11245596Y39197169D01*
X11244226Y39198356D01*
X11236668Y39200000D01*
X11006028Y39200000D01*
X10999331Y39199637D01*
X10949254Y39194197D01*
X10934249Y39190630D01*
X10904237Y39179379D01*
X10834554Y39174279D01*
X10817185Y39179379D01*
X10797741Y39186668D01*
X10778580Y39193851D01*
X10770855Y39194690D01*
X10770852Y39194691D01*
X10746646Y39197320D01*
X10717377Y39200500D01*
X10695167Y39200500D01*
X9999499Y39200499D01*
X9932461Y39220183D01*
X9886706Y39272987D01*
X9875500Y39324499D01*
X9875500Y40536786D01*
X20744806Y40536786D01*
X20746575Y40506102D01*
X20759010Y40290455D01*
X20813255Y40049751D01*
X20906084Y39821139D01*
X20908746Y39816795D01*
X21032344Y39615102D01*
X21032348Y39615097D01*
X21035006Y39610759D01*
X21038338Y39606913D01*
X21038339Y39606911D01*
X21144279Y39484611D01*
X21196557Y39424259D01*
X21200467Y39421012D01*
X21200471Y39421009D01*
X21286007Y39349996D01*
X21386399Y39266649D01*
X21505300Y39197169D01*
X21595036Y39144731D01*
X21595040Y39144729D01*
X21599433Y39142162D01*
X21829939Y39054141D01*
X21950832Y39029545D01*
X22066741Y39005962D01*
X22066744Y39005962D01*
X22071726Y39004948D01*
X22233367Y38999021D01*
X22313221Y38996093D01*
X22313224Y38996093D01*
X22318300Y38995907D01*
X22563041Y39027259D01*
X22649264Y39053127D01*
X22794502Y39096700D01*
X22794506Y39096701D01*
X22799374Y39098162D01*
X23020954Y39206713D01*
X23025099Y39209670D01*
X23025103Y39209672D01*
X23165332Y39309697D01*
X23221829Y39349996D01*
X23396605Y39524163D01*
X23540588Y39724537D01*
X23601888Y39848568D01*
X23647654Y39941169D01*
X23647655Y39941170D01*
X23649911Y39945736D01*
X23721639Y40181820D01*
X23753845Y40426450D01*
X23755643Y40500000D01*
X23753037Y40531703D01*
X23752619Y40536786D01*
X40744806Y40536786D01*
X40746575Y40506102D01*
X40759010Y40290455D01*
X40813255Y40049751D01*
X40906084Y39821139D01*
X40908746Y39816795D01*
X41032344Y39615102D01*
X41032348Y39615097D01*
X41035006Y39610759D01*
X41038338Y39606913D01*
X41038339Y39606911D01*
X41144279Y39484611D01*
X41196557Y39424259D01*
X41200467Y39421012D01*
X41200471Y39421009D01*
X41286007Y39349996D01*
X41386399Y39266649D01*
X41505300Y39197169D01*
X41595036Y39144731D01*
X41595040Y39144729D01*
X41599433Y39142162D01*
X41829939Y39054141D01*
X41950832Y39029545D01*
X42066741Y39005962D01*
X42066744Y39005962D01*
X42071726Y39004948D01*
X42233367Y38999021D01*
X42313221Y38996093D01*
X42313224Y38996093D01*
X42318300Y38995907D01*
X42563041Y39027259D01*
X42649264Y39053127D01*
X42794502Y39096700D01*
X42794506Y39096701D01*
X42799374Y39098162D01*
X43020954Y39206713D01*
X43025099Y39209670D01*
X43025103Y39209672D01*
X43165332Y39309697D01*
X43221829Y39349996D01*
X43396605Y39524163D01*
X43540588Y39724537D01*
X43601888Y39848568D01*
X43647654Y39941169D01*
X43647655Y39941170D01*
X43649911Y39945736D01*
X43721639Y40181820D01*
X43753845Y40426450D01*
X43755643Y40500000D01*
X43753037Y40531703D01*
X43739214Y40699822D01*
X43735425Y40745911D01*
X43730902Y40763920D01*
X43683299Y40953435D01*
X43675316Y40985217D01*
X43671492Y40994013D01*
X43578956Y41206828D01*
X43576928Y41211493D01*
X43442905Y41418661D01*
X43313784Y41560564D01*
X43280278Y41597387D01*
X43280274Y41597391D01*
X43276846Y41601158D01*
X43083210Y41754082D01*
X43032695Y41781968D01*
X42871653Y41870868D01*
X42871650Y41870869D01*
X42867198Y41873327D01*
X42634610Y41955691D01*
X42391694Y41998961D01*
X42305090Y42000019D01*
X42150062Y42001913D01*
X42150060Y42001913D01*
X42144972Y42001975D01*
X41901070Y41964653D01*
X41666540Y41887997D01*
X41662026Y41885647D01*
X41452194Y41776416D01*
X41452188Y41776412D01*
X41447679Y41774065D01*
X41432381Y41762579D01*
X41260171Y41633280D01*
X41250364Y41625917D01*
X41246848Y41622238D01*
X41246846Y41622236D01*
X41187911Y41560564D01*
X41079896Y41447532D01*
X41077032Y41443333D01*
X41077030Y41443331D01*
X40943722Y41247909D01*
X40940851Y41243700D01*
X40836965Y41019896D01*
X40771026Y40782129D01*
X40744806Y40536786D01*
X23752619Y40536786D01*
X23739214Y40699822D01*
X23735425Y40745911D01*
X23730902Y40763920D01*
X23683299Y40953435D01*
X23675316Y40985217D01*
X23671492Y40994013D01*
X23578956Y41206828D01*
X23576928Y41211493D01*
X23442905Y41418661D01*
X23313784Y41560564D01*
X23280278Y41597387D01*
X23280274Y41597391D01*
X23276846Y41601158D01*
X23083210Y41754082D01*
X23032695Y41781968D01*
X22871653Y41870868D01*
X22871650Y41870869D01*
X22867198Y41873327D01*
X22634610Y41955691D01*
X22391694Y41998961D01*
X22305090Y42000019D01*
X22150062Y42001913D01*
X22150060Y42001913D01*
X22144972Y42001975D01*
X21901070Y41964653D01*
X21666540Y41887997D01*
X21662026Y41885647D01*
X21452194Y41776416D01*
X21452188Y41776412D01*
X21447679Y41774065D01*
X21432381Y41762579D01*
X21260171Y41633280D01*
X21250364Y41625917D01*
X21246848Y41622238D01*
X21246846Y41622236D01*
X21187911Y41560564D01*
X21079896Y41447532D01*
X21077032Y41443333D01*
X21077030Y41443331D01*
X20943722Y41247909D01*
X20940851Y41243700D01*
X20836965Y41019896D01*
X20771026Y40782129D01*
X20744806Y40536786D01*
X9875500Y40536786D01*
X9875500Y40575500D01*
X9895185Y40642539D01*
X9947989Y40688294D01*
X9999500Y40699500D01*
X10399866Y40699500D01*
X10504519Y40710359D01*
X10510956Y40712507D01*
X10510958Y40712507D01*
X10663695Y40763464D01*
X10670529Y40765744D01*
X10721273Y40797145D01*
X10813220Y40854043D01*
X10813224Y40854046D01*
X10819345Y40857834D01*
X10824429Y40862927D01*
X10824433Y40862930D01*
X10912540Y40951192D01*
X10973834Y40984730D01*
X11043530Y40979807D01*
X11087903Y40951345D01*
X11176904Y40862499D01*
X11188135Y40853630D01*
X11324741Y40769425D01*
X11337718Y40763373D01*
X11490446Y40712715D01*
X11503613Y40709892D01*
X11597019Y40700322D01*
X11603325Y40700000D01*
X11732170Y40700000D01*
X11747169Y40704404D01*
X11748356Y40705774D01*
X11750000Y40713332D01*
X11750000Y40717831D01*
X12250000Y40717831D01*
X12254404Y40702832D01*
X12255774Y40701645D01*
X12263332Y40700001D01*
X12396636Y40700001D01*
X12403015Y40700331D01*
X12497671Y40710151D01*
X12510849Y40712997D01*
X12663481Y40763920D01*
X12676443Y40769991D01*
X12812907Y40854438D01*
X12824120Y40863325D01*
X12937501Y40976904D01*
X12946370Y40988135D01*
X13030575Y41124741D01*
X13036627Y41137718D01*
X13087285Y41290446D01*
X13090108Y41303613D01*
X13099678Y41397019D01*
X13100000Y41403325D01*
X13100000Y41632170D01*
X13095596Y41647169D01*
X13094226Y41648356D01*
X13086668Y41650000D01*
X12267830Y41650000D01*
X12252831Y41645596D01*
X12251644Y41644226D01*
X12250000Y41636668D01*
X12250000Y40717831D01*
X11750000Y40717831D01*
X11750000Y42026000D01*
X11769685Y42093039D01*
X11822489Y42138794D01*
X11874000Y42150000D01*
X13082169Y42150000D01*
X13097168Y42154404D01*
X13098355Y42155774D01*
X13099999Y42163332D01*
X13099999Y42396636D01*
X13099669Y42403015D01*
X13089849Y42497671D01*
X13087003Y42510849D01*
X13036080Y42663481D01*
X13030011Y42676438D01*
X12947206Y42810249D01*
X12928668Y42877615D01*
X12949493Y42944309D01*
X13003070Y42989156D01*
X13052650Y42999500D01*
X54126000Y42999500D01*
X54193039Y42979815D01*
G37*
%TD.AperFunction*%
%TA.AperFunction,Conductor*%
G36*
X4514230Y42979815D02*
G01*
X4559985Y42927011D01*
X4569929Y42857853D01*
X4552748Y42810434D01*
X4469425Y42675259D01*
X4463373Y42662282D01*
X4412715Y42509554D01*
X4409892Y42496387D01*
X4400322Y42402981D01*
X4400000Y42396675D01*
X4400000Y42167830D01*
X4404404Y42152831D01*
X4405774Y42151644D01*
X4413332Y42150000D01*
X5626000Y42150000D01*
X5693039Y42130315D01*
X5738794Y42077511D01*
X5750000Y42026000D01*
X5750000Y40717831D01*
X5754404Y40702832D01*
X5755774Y40701645D01*
X5763332Y40700001D01*
X5896636Y40700001D01*
X5903015Y40700331D01*
X5997671Y40710151D01*
X6010849Y40712997D01*
X6163481Y40763920D01*
X6176443Y40769991D01*
X6312907Y40854438D01*
X6324120Y40863325D01*
X6411833Y40951191D01*
X6473127Y40984729D01*
X6542823Y40979806D01*
X6587197Y40951344D01*
X6681689Y40857016D01*
X6830666Y40765186D01*
X6996772Y40710090D01*
X7051316Y40704502D01*
X7096987Y40699822D01*
X7096995Y40699822D01*
X7100134Y40699500D01*
X7500500Y40699500D01*
X7567539Y40679815D01*
X7613294Y40627011D01*
X7624500Y40575500D01*
X7624500Y39324500D01*
X7604815Y39257461D01*
X7552011Y39211706D01*
X7500500Y39200500D01*
X6804841Y39200499D01*
X6782624Y39200499D01*
X6721420Y39193851D01*
X6714143Y39191123D01*
X6682815Y39179379D01*
X6613132Y39174279D01*
X6595763Y39179379D01*
X6565751Y39190630D01*
X6550746Y39194197D01*
X6500669Y39199637D01*
X6493972Y39200000D01*
X6267830Y39200000D01*
X6252831Y39195596D01*
X6251644Y39194226D01*
X6250000Y39186668D01*
X6250000Y36217830D01*
X6254404Y36202831D01*
X6255774Y36201644D01*
X6263332Y36200000D01*
X6493981Y36200000D01*
X6499812Y36200316D01*
X6567819Y36184288D01*
X6612531Y36140826D01*
X6633761Y36105840D01*
X6637416Y36101702D01*
X6641085Y36097548D01*
X6641057Y36097523D01*
X6643618Y36094634D01*
X6646375Y36091337D01*
X6650323Y36085315D01*
X6705792Y36032769D01*
X6705969Y36032601D01*
X6708372Y36030261D01*
X7222433Y35516199D01*
X7234622Y35502016D01*
X7247383Y35484676D01*
X7252874Y35480011D01*
X7252875Y35480010D01*
X7287240Y35450815D01*
X7294637Y35443995D01*
X7300303Y35438329D01*
X7322392Y35420853D01*
X7325716Y35418127D01*
X7380755Y35371368D01*
X7387172Y35368091D01*
X7392188Y35364746D01*
X7397297Y35361591D01*
X7402949Y35357119D01*
X7468408Y35326525D01*
X7472281Y35324632D01*
X7536616Y35291781D01*
X7543616Y35290068D01*
X7549266Y35287967D01*
X7554968Y35286070D01*
X7561493Y35283020D01*
X7568538Y35281555D01*
X7568543Y35281553D01*
X7632233Y35268306D01*
X7636437Y35267355D01*
X7706606Y35250185D01*
X7712117Y35249843D01*
X7712118Y35249843D01*
X7717648Y35249500D01*
X7717646Y35249462D01*
X7721488Y35249232D01*
X7725777Y35248849D01*
X7732831Y35247382D01*
X7809437Y35249455D01*
X7812791Y35249500D01*
X9375500Y35249500D01*
X9442539Y35229815D01*
X9488294Y35177011D01*
X9499500Y35125500D01*
X9499500Y33363027D01*
X9479815Y33295988D01*
X9448996Y33263156D01*
X9440482Y33256891D01*
X9440476Y33256885D01*
X9434676Y33252617D01*
X9430016Y33247131D01*
X9430012Y33247128D01*
X9400803Y33212746D01*
X9393983Y33205350D01*
X9388330Y33199697D01*
X9370863Y33177620D01*
X9368150Y33174311D01*
X9321368Y33119245D01*
X9318090Y33112824D01*
X9314733Y33107791D01*
X9311589Y33102701D01*
X9307119Y33097051D01*
X9276519Y33031578D01*
X9274637Y33027729D01*
X9241781Y32963384D01*
X9240069Y32956386D01*
X9237970Y32950743D01*
X9236069Y32945029D01*
X9233021Y32938507D01*
X9224072Y32895481D01*
X9218306Y32867762D01*
X9217353Y32863553D01*
X9200185Y32793394D01*
X9199500Y32782352D01*
X9199464Y32782354D01*
X9199231Y32778500D01*
X9198849Y32774222D01*
X9197382Y32767169D01*
X9199046Y32705666D01*
X9199455Y32690563D01*
X9199500Y32687209D01*
X9199500Y30932326D01*
X9194576Y30897732D01*
X9152402Y30752569D01*
X9149500Y30715694D01*
X9149500Y29649500D01*
X9129815Y29582461D01*
X9077011Y29536706D01*
X9025500Y29525500D01*
X8974500Y29525500D01*
X8907461Y29545185D01*
X8861706Y29597989D01*
X8850500Y29649500D01*
X8850500Y30715694D01*
X8847598Y30752569D01*
X8801744Y30910398D01*
X8718081Y31051865D01*
X8711819Y31058127D01*
X8711423Y31058853D01*
X8707783Y31063545D01*
X8708540Y31064132D01*
X8678334Y31119450D01*
X8675500Y31145808D01*
X8675500Y31872225D01*
X8676022Y31883281D01*
X8677673Y31890667D01*
X8675561Y31957873D01*
X8675500Y31961768D01*
X8675500Y31989350D01*
X8675014Y31993200D01*
X8675013Y31993208D01*
X8674998Y31993323D01*
X8674080Y32004982D01*
X8672954Y32040829D01*
X8672709Y32048627D01*
X8669157Y32060856D01*
X8667120Y32067866D01*
X8663174Y32086922D01*
X8661642Y32099048D01*
X8660664Y32106792D01*
X8644585Y32147401D01*
X8640801Y32158455D01*
X8630794Y32192900D01*
X8628618Y32200390D01*
X8618422Y32217630D01*
X8609862Y32235103D01*
X8605360Y32246474D01*
X8605359Y32246477D01*
X8602486Y32253732D01*
X8576819Y32289060D01*
X8570407Y32298822D01*
X8552144Y32329703D01*
X8552138Y32329711D01*
X8548170Y32336420D01*
X8534006Y32350584D01*
X8521369Y32365380D01*
X8514181Y32375273D01*
X8509594Y32381587D01*
X8475941Y32409427D01*
X8467300Y32417290D01*
X7636819Y33247772D01*
X7603334Y33309095D01*
X7600500Y33335453D01*
X7600500Y33999866D01*
X7589641Y34104519D01*
X7581301Y34129519D01*
X7536536Y34263695D01*
X7534256Y34270529D01*
X7502855Y34321273D01*
X7445957Y34413220D01*
X7445954Y34413224D01*
X7442166Y34419345D01*
X7318311Y34542984D01*
X7287989Y34561675D01*
X7177129Y34630009D01*
X7169334Y34634814D01*
X7003228Y34689910D01*
X6947731Y34695596D01*
X6903013Y34700178D01*
X6903005Y34700178D01*
X6899866Y34700500D01*
X6100134Y34700500D01*
X5995481Y34689641D01*
X5989044Y34687493D01*
X5989042Y34687493D01*
X5837936Y34637080D01*
X5829471Y34634256D01*
X5822608Y34630009D01*
X5686780Y34545957D01*
X5686776Y34545954D01*
X5680655Y34542166D01*
X5675571Y34537073D01*
X5675567Y34537070D01*
X5587460Y34448808D01*
X5526166Y34415270D01*
X5456470Y34420193D01*
X5412097Y34448655D01*
X5323096Y34537501D01*
X5311865Y34546370D01*
X5175259Y34630575D01*
X5162282Y34636627D01*
X5009554Y34687285D01*
X4996387Y34690108D01*
X4902981Y34699678D01*
X4896675Y34700000D01*
X4767830Y34700000D01*
X4752831Y34695596D01*
X4751644Y34694226D01*
X4750000Y34686668D01*
X4750000Y32317831D01*
X4754404Y32302832D01*
X4755774Y32301645D01*
X4763332Y32300001D01*
X4896636Y32300001D01*
X4903015Y32300331D01*
X4997671Y32310151D01*
X5010849Y32312997D01*
X5163481Y32363920D01*
X5176443Y32369991D01*
X5312907Y32454438D01*
X5324120Y32463325D01*
X5411833Y32551191D01*
X5473127Y32584729D01*
X5542823Y32579806D01*
X5587197Y32551344D01*
X5681689Y32457016D01*
X5687820Y32453237D01*
X5687821Y32453236D01*
X5720920Y32432834D01*
X5830666Y32365186D01*
X5996772Y32310090D01*
X6051316Y32304502D01*
X6096987Y32299822D01*
X6096995Y32299822D01*
X6100134Y32299500D01*
X6764548Y32299500D01*
X6831587Y32279815D01*
X6852229Y32263181D01*
X7388181Y31727228D01*
X7421666Y31665905D01*
X7424500Y31639547D01*
X7424500Y31145808D01*
X7404815Y31078769D01*
X7388181Y31058127D01*
X7381919Y31051865D01*
X7298256Y30910398D01*
X7252402Y30752569D01*
X7249500Y30715694D01*
X7249500Y29559306D01*
X7252402Y29522431D01*
X7298256Y29364602D01*
X7381919Y29223135D01*
X7498135Y29106919D01*
X7504852Y29102947D01*
X7511015Y29098166D01*
X7508947Y29095500D01*
X7546150Y29055632D01*
X7558635Y28986887D01*
X7531971Y28922305D01*
X7509942Y28903217D01*
X7511015Y28901834D01*
X7504852Y28897053D01*
X7498135Y28893081D01*
X7381919Y28776865D01*
X7298256Y28635398D01*
X7252402Y28477569D01*
X7249500Y28440694D01*
X7249500Y27361229D01*
X7229815Y27294190D01*
X7177011Y27248435D01*
X7107853Y27238491D01*
X7044297Y27267516D01*
X7037819Y27273548D01*
X6761819Y27549548D01*
X6728334Y27610871D01*
X6725500Y27637229D01*
X6725500Y28349866D01*
X6714641Y28454519D01*
X6709059Y28471252D01*
X6661536Y28613695D01*
X6659256Y28620529D01*
X6627855Y28671273D01*
X6570957Y28763220D01*
X6570954Y28763224D01*
X6567166Y28769345D01*
X6455287Y28881029D01*
X6448409Y28887895D01*
X6448408Y28887895D01*
X6443311Y28892984D01*
X6437179Y28896764D01*
X6431525Y28901229D01*
X6432947Y28903030D01*
X6393597Y28946742D01*
X6382346Y29015700D01*
X6410163Y29079794D01*
X6432723Y29099380D01*
X6432261Y29099963D01*
X6449120Y29113325D01*
X6562501Y29226904D01*
X6571370Y29238135D01*
X6655575Y29374741D01*
X6661627Y29387718D01*
X6712285Y29540446D01*
X6715108Y29553613D01*
X6724678Y29647019D01*
X6725000Y29653325D01*
X6725000Y29769670D01*
X6720596Y29784669D01*
X6719226Y29785856D01*
X6711668Y29787500D01*
X4292831Y29787500D01*
X4277832Y29783096D01*
X4276645Y29781726D01*
X4275001Y29774168D01*
X4275001Y29653364D01*
X4275331Y29646985D01*
X4285151Y29552329D01*
X4287997Y29539151D01*
X4338920Y29386519D01*
X4344991Y29373557D01*
X4429438Y29237093D01*
X4438325Y29225880D01*
X4551904Y29112499D01*
X4568784Y29099169D01*
X4567299Y29097288D01*
X4606407Y29053838D01*
X4617653Y28984879D01*
X4589831Y28920787D01*
X4567001Y28900967D01*
X4567426Y28900431D01*
X4561781Y28895957D01*
X4555655Y28892166D01*
X4493387Y28829789D01*
X4467767Y28804124D01*
X4432016Y28768311D01*
X4340186Y28619334D01*
X4285090Y28453228D01*
X4279502Y28398684D01*
X4274826Y28353044D01*
X4274500Y28349866D01*
X4274500Y27849729D01*
X4254815Y27782690D01*
X4238181Y27762048D01*
X2461681Y25985548D01*
X2400358Y25952063D01*
X2330666Y25957047D01*
X2274733Y25998919D01*
X2250316Y26064383D01*
X2250000Y26073229D01*
X2250000Y30305330D01*
X4275000Y30305330D01*
X4279404Y30290331D01*
X4280774Y30289144D01*
X4288332Y30287500D01*
X5232170Y30287500D01*
X5247169Y30291904D01*
X5248356Y30293274D01*
X5250000Y30300832D01*
X5250000Y30305330D01*
X5750000Y30305330D01*
X5754404Y30290331D01*
X5755774Y30289144D01*
X5763332Y30287500D01*
X6707169Y30287500D01*
X6722168Y30291904D01*
X6723355Y30293274D01*
X6724999Y30300832D01*
X6724999Y30421636D01*
X6724669Y30428015D01*
X6714849Y30522671D01*
X6712003Y30535849D01*
X6661080Y30688481D01*
X6655009Y30701443D01*
X6570562Y30837907D01*
X6561675Y30849120D01*
X6448096Y30962501D01*
X6436865Y30971370D01*
X6300259Y31055575D01*
X6287282Y31061627D01*
X6134554Y31112285D01*
X6121387Y31115108D01*
X6027981Y31124678D01*
X6021675Y31125000D01*
X5767830Y31125000D01*
X5752831Y31120596D01*
X5751644Y31119226D01*
X5750000Y31111668D01*
X5750000Y30305330D01*
X5250000Y30305330D01*
X5250000Y31107169D01*
X5245596Y31122168D01*
X5244226Y31123355D01*
X5236668Y31124999D01*
X4978364Y31124999D01*
X4971985Y31124669D01*
X4877329Y31114849D01*
X4864151Y31112003D01*
X4711519Y31061080D01*
X4698557Y31055009D01*
X4562093Y30970562D01*
X4550880Y30961675D01*
X4437499Y30848096D01*
X4428630Y30836865D01*
X4344425Y30700259D01*
X4338373Y30687282D01*
X4287715Y30534554D01*
X4284892Y30521387D01*
X4275322Y30427981D01*
X4275000Y30421675D01*
X4275000Y30305330D01*
X2250000Y30305330D01*
X2250000Y33003364D01*
X3400001Y33003364D01*
X3400331Y32996985D01*
X3410151Y32902329D01*
X3412997Y32889151D01*
X3463920Y32736519D01*
X3469991Y32723557D01*
X3554438Y32587093D01*
X3563325Y32575880D01*
X3676904Y32462499D01*
X3688135Y32453630D01*
X3824741Y32369425D01*
X3837718Y32363373D01*
X3990446Y32312715D01*
X4003613Y32309892D01*
X4097019Y32300322D01*
X4103325Y32300000D01*
X4232170Y32300000D01*
X4247169Y32304404D01*
X4248356Y32305774D01*
X4250000Y32313332D01*
X4250000Y33232170D01*
X4245596Y33247169D01*
X4244226Y33248356D01*
X4236668Y33250000D01*
X3417831Y33250000D01*
X3402832Y33245596D01*
X3401645Y33244226D01*
X3400001Y33236668D01*
X3400001Y33003364D01*
X2250000Y33003364D01*
X2250000Y33767830D01*
X3400000Y33767830D01*
X3404404Y33752831D01*
X3405774Y33751644D01*
X3413332Y33750000D01*
X4232170Y33750000D01*
X4247169Y33754404D01*
X4248356Y33755774D01*
X4250000Y33763332D01*
X4250000Y34682169D01*
X4245596Y34697168D01*
X4244226Y34698355D01*
X4236668Y34699999D01*
X4103364Y34699999D01*
X4096985Y34699669D01*
X4002329Y34689849D01*
X3989151Y34687003D01*
X3836519Y34636080D01*
X3823557Y34630009D01*
X3687093Y34545562D01*
X3675880Y34536675D01*
X3562499Y34423096D01*
X3553630Y34411865D01*
X3469425Y34275259D01*
X3463373Y34262282D01*
X3412715Y34109554D01*
X3409892Y34096387D01*
X3400322Y34002981D01*
X3400000Y33996675D01*
X3400000Y33767830D01*
X2250000Y33767830D01*
X2250000Y37952368D01*
X3480000Y37952368D01*
X3480317Y37946106D01*
X3494738Y37804139D01*
X3497252Y37791889D01*
X3554248Y37610018D01*
X3559169Y37598535D01*
X3651572Y37431835D01*
X3658704Y37421573D01*
X3782734Y37276866D01*
X3791790Y37268242D01*
X3942380Y37151432D01*
X3952987Y37144804D01*
X4123997Y37060656D01*
X4135707Y37056301D01*
X4212747Y37036234D01*
X4226620Y37036661D01*
X4229812Y37044262D01*
X4730000Y37044262D01*
X4733910Y37030945D01*
X4739918Y37030081D01*
X4883183Y37082792D01*
X4952896Y37087467D01*
X5014070Y37053710D01*
X5047282Y36992238D01*
X5050000Y36966419D01*
X5050000Y36656028D01*
X5050363Y36649331D01*
X5055803Y36599256D01*
X5059371Y36584247D01*
X5103817Y36465689D01*
X5112212Y36450354D01*
X5187516Y36349876D01*
X5199876Y36337516D01*
X5300354Y36262212D01*
X5315689Y36253817D01*
X5434247Y36209371D01*
X5449256Y36205803D01*
X5499331Y36200363D01*
X5506028Y36200000D01*
X5732170Y36200000D01*
X5747169Y36204404D01*
X5748356Y36205774D01*
X5750000Y36213332D01*
X5750000Y39182170D01*
X5745596Y39197169D01*
X5744226Y39198356D01*
X5736668Y39200000D01*
X5556377Y39200000D01*
X5489338Y39219685D01*
X5443583Y39272489D01*
X5438051Y39286918D01*
X5405751Y39389985D01*
X5400831Y39401465D01*
X5308428Y39568165D01*
X5301296Y39578427D01*
X5177266Y39723134D01*
X5168210Y39731758D01*
X5017620Y39848568D01*
X5007013Y39855196D01*
X4836003Y39939344D01*
X4824293Y39943699D01*
X4747253Y39963766D01*
X4733380Y39963339D01*
X4730000Y39955290D01*
X4730000Y37044262D01*
X4229812Y37044262D01*
X4230000Y37044710D01*
X4230000Y38232170D01*
X4225596Y38247169D01*
X4224226Y38248356D01*
X4216668Y38250000D01*
X3497830Y38250000D01*
X3482831Y38245596D01*
X3481644Y38244226D01*
X3480000Y38236668D01*
X3480000Y37952368D01*
X2250000Y37952368D01*
X2250000Y38767830D01*
X3480000Y38767830D01*
X3484404Y38752831D01*
X3485774Y38751644D01*
X3493332Y38750000D01*
X4212170Y38750000D01*
X4227169Y38754404D01*
X4228356Y38755774D01*
X4230000Y38763332D01*
X4230000Y39955738D01*
X4226090Y39969055D01*
X4220082Y39969919D01*
X4045263Y39905598D01*
X4034032Y39900120D01*
X3872046Y39799685D01*
X3862142Y39792057D01*
X3723666Y39661107D01*
X3715499Y39651646D01*
X3606179Y39495521D01*
X3600081Y39484611D01*
X3524390Y39309697D01*
X3520608Y39297774D01*
X3481324Y39109737D01*
X3480100Y39100307D01*
X3480084Y39100013D01*
X3480000Y39096802D01*
X3480000Y38767830D01*
X2250000Y38767830D01*
X2250000Y41403364D01*
X4400001Y41403364D01*
X4400331Y41396985D01*
X4410151Y41302329D01*
X4412997Y41289151D01*
X4463920Y41136519D01*
X4469991Y41123557D01*
X4554438Y40987093D01*
X4563325Y40975880D01*
X4676904Y40862499D01*
X4688135Y40853630D01*
X4824741Y40769425D01*
X4837718Y40763373D01*
X4990446Y40712715D01*
X5003613Y40709892D01*
X5097019Y40700322D01*
X5103325Y40700000D01*
X5232170Y40700000D01*
X5247169Y40704404D01*
X5248356Y40705774D01*
X5250000Y40713332D01*
X5250000Y41632170D01*
X5245596Y41647169D01*
X5244226Y41648356D01*
X5236668Y41650000D01*
X4417831Y41650000D01*
X4402832Y41645596D01*
X4401645Y41644226D01*
X4400001Y41636668D01*
X4400001Y41403364D01*
X2250000Y41403364D01*
X2250000Y42875500D01*
X2269685Y42942539D01*
X2322489Y42988294D01*
X2374000Y42999500D01*
X4447191Y42999500D01*
X4514230Y42979815D01*
G37*
%TD.AperFunction*%
%TA.AperFunction,Conductor*%
G36*
X9092539Y28092815D02*
G01*
X9138294Y28040011D01*
X9149500Y27988500D01*
X9149500Y27284306D01*
X9152402Y27247431D01*
X9194576Y27102269D01*
X9199500Y27067674D01*
X9199500Y26374500D01*
X9179815Y26307461D01*
X9127011Y26261706D01*
X9075500Y26250500D01*
X8112230Y26250500D01*
X8045191Y26270185D01*
X8024549Y26286819D01*
X7823549Y26487819D01*
X7790064Y26549142D01*
X7795048Y26618834D01*
X7836920Y26674767D01*
X7902384Y26699184D01*
X7911230Y26699500D01*
X8265694Y26699500D01*
X8302569Y26702402D01*
X8460398Y26748256D01*
X8467113Y26752227D01*
X8474274Y26755326D01*
X8475399Y26752725D01*
X8530076Y26766605D01*
X8574908Y26753441D01*
X8575924Y26755789D01*
X8597298Y26746540D01*
X8738694Y26705461D01*
X8747078Y26707223D01*
X8750000Y26718503D01*
X8750000Y26968185D01*
X8767268Y27031306D01*
X8797773Y27082887D01*
X8797774Y27082888D01*
X8801744Y27089602D01*
X8847598Y27247431D01*
X8850500Y27284306D01*
X8850500Y27988500D01*
X8870185Y28055539D01*
X8922989Y28101294D01*
X8974500Y28112500D01*
X9025500Y28112500D01*
X9092539Y28092815D01*
G37*
%TD.AperFunction*%
%TD*%
M02*
